<svg width="97" height="30" viewBox="0 0 97 30" fill="none" xmlns="http://www.w3.org/2000/svg">
<g clip-path="url(#clip0_319_2690)">
<path fill-rule="evenodd" clip-rule="evenodd" d="M60.1402 23.4612C54.5068 27.7253 46.3415 30.0003 39.3114 30.0003C29.4539 30.0003 20.5797 26.2563 13.8661 20.0292C13.3386 19.5395 13.8112 18.8722 14.4442 19.2535C21.6895 23.5826 30.6481 26.1869 39.9021 26.1869C46.1432 26.1869 53.0088 24.8609 59.3216 22.1092C60.2753 21.6932 61.0728 22.7505 60.1402 23.4612Z" fill="#FF9900"/>
<path fill-rule="evenodd" clip-rule="evenodd" d="M62.4824 20.709C61.7651 19.7644 57.7225 20.2627 55.908 20.4837C55.3552 20.553 55.2708 20.059 55.7688 19.7037C58.9885 17.3767 64.2716 18.0483 64.8877 18.8283C65.5038 19.6127 64.7274 25.0511 61.7018 27.6468C61.2376 28.0454 60.7945 27.8331 61.0013 27.3044C61.6807 25.5624 63.204 21.658 62.4824 20.709Z" fill="#FF9900"/>
<path fill-rule="evenodd" clip-rule="evenodd" d="M56.0349 3.27641V1.01439C56.0349 0.672052 56.2881 0.442383 56.5919 0.442383H66.4535C66.77 0.442383 67.0232 0.676386 67.0232 1.01439V2.95141C67.019 3.27641 66.7531 3.70108 66.2805 4.37276L61.1703 11.8652C63.0693 11.8175 65.0737 12.1078 66.7953 13.1045C67.1835 13.3299 67.289 13.6592 67.3186 13.9842V16.3979C67.3186 16.7272 66.9641 17.1129 66.5928 16.9136C63.5587 15.2799 59.5288 15.1022 56.1741 16.9309C55.8323 17.1216 55.4736 16.7402 55.4736 16.4109V14.1185C55.4736 13.7502 55.4778 13.1218 55.8365 12.5628L61.7569 3.84408H56.6045C56.288 3.84408 56.0349 3.61442 56.0349 3.27641Z" fill="black"/>
<path fill-rule="evenodd" clip-rule="evenodd" d="M20.0611 17.3895H17.0608C16.7739 17.3679 16.546 17.1469 16.5249 16.8652V1.05271C16.5249 0.736376 16.7823 0.485038 17.103 0.485038H19.9007C20.1919 0.498029 20.424 0.727706 20.4451 1.01371V3.08073H20.4999C21.23 1.08304 22.6014 0.151367 24.4497 0.151367C26.3275 0.151367 27.5006 1.08304 28.3445 3.08073C29.0703 1.08304 30.7203 0.151367 32.4884 0.151367C33.7459 0.151367 35.1215 0.684372 35.9612 1.88038C36.9107 3.21073 36.7166 5.14342 36.7166 6.83777L36.7124 16.8175C36.7124 17.1339 36.455 17.3895 36.1343 17.3895H33.1382C32.8386 17.3679 32.5981 17.1209 32.5981 16.8175V8.43678C32.5981 7.76944 32.6571 6.10543 32.5137 5.47275C32.29 4.41108 31.6191 4.11207 30.7498 4.11207C30.024 4.11207 29.2644 4.61041 28.9564 5.40775C28.6484 6.2051 28.6779 7.53977 28.6779 8.43678V16.8175C28.6779 17.1339 28.4205 17.3895 28.0998 17.3895H25.1037C24.7999 17.3679 24.5636 17.1209 24.5636 16.8175L24.5594 8.43678C24.5594 6.6731 24.8421 4.07741 22.7111 4.07741C20.5548 4.07741 20.6392 6.6081 20.6392 8.43678V16.8175C20.6392 17.1339 20.3818 17.3895 20.0611 17.3895" fill="black"/>
<path fill-rule="evenodd" clip-rule="evenodd" d="M75.5129 0.151367C79.9648 0.151367 82.3743 4.07741 82.3743 9.06946C82.3743 13.8925 79.7116 17.7189 75.5129 17.7189C71.1412 17.7189 68.7612 13.7928 68.7612 8.90046C68.7612 3.97774 71.1707 0.151367 75.5129 0.151367ZM75.5382 3.37974C73.327 3.37974 73.1878 6.47376 73.1878 8.40212C73.1878 10.3348 73.1583 14.4602 75.5129 14.4602C77.838 14.4602 77.9477 11.1322 77.9477 9.10413C77.9477 7.76945 77.8929 6.17476 77.5004 4.90942C77.1628 3.80874 76.4919 3.37974 75.5382 3.37974Z" fill="black"/>
<path fill-rule="evenodd" clip-rule="evenodd" d="M88.1472 17.3895H85.1596C84.86 17.3679 84.6194 17.1209 84.6194 16.8175L84.6152 1.00071C84.6406 0.710373 84.8895 0.485038 85.1933 0.485038H87.9742C88.2358 0.498029 88.451 0.68004 88.5101 0.927043V3.34507H88.565C89.4047 1.18271 90.582 0.151367 92.6539 0.151367C94 0.151367 95.3124 0.649706 96.1563 2.01472C96.9412 3.28007 96.9412 5.40775 96.9412 6.93743V16.8912C96.9075 17.1685 96.6585 17.3895 96.3631 17.3895H93.3544C93.0801 17.3679 92.8523 17.1599 92.8227 16.8912V8.30245C92.8227 6.57343 93.0168 4.04274 90.9449 4.04274C90.2149 4.04274 89.5439 4.54541 89.2106 5.30808C88.7886 6.27443 88.7337 7.23644 88.7337 8.30245V16.8175C88.7295 17.1339 88.4679 17.3895 88.1472 17.3895" fill="black"/>
<path fill-rule="evenodd" clip-rule="evenodd" d="M48.173 9.83677C48.173 11.0371 48.2025 12.0381 47.6117 13.1041C47.1349 13.9708 46.3754 14.5038 45.5356 14.5038C44.3836 14.5038 43.7084 13.6025 43.7084 12.2721C43.7084 9.6461 45.9998 9.16943 48.173 9.16943V9.83677ZM51.1986 17.3465C51.0002 17.5285 50.7133 17.5415 50.4896 17.4202C49.4938 16.5708 49.3123 16.1765 48.768 15.3662C47.1223 17.0908 45.9534 17.6065 43.8224 17.6065C41.2947 17.6065 39.3325 16.0075 39.3325 12.8051C39.3325 10.3048 40.6491 8.60176 42.5311 7.76975C44.16 7.03307 46.4344 6.90307 48.173 6.69941V6.30073C48.173 5.56839 48.2278 4.70171 47.8059 4.06905C47.443 3.50137 46.7425 3.26737 46.1222 3.26737C44.9786 3.26737 43.9616 3.86971 43.7127 5.11772C43.662 5.39506 43.4637 5.66806 43.1894 5.68106L40.282 5.36039C40.0372 5.30406 39.7629 5.10039 39.8347 4.71472C40.5014 1.09201 43.6916 0 46.5441 0C48.0042 0 49.9115 0.398672 51.0635 1.53402C52.5236 2.9337 52.3843 4.80138 52.3843 6.83374V11.6351C52.3843 13.0781 52.9667 13.7108 53.5152 14.4908C53.7051 14.7682 53.7473 15.1018 53.5026 15.3098C52.8907 15.8342 51.802 16.8092 51.2028 17.3552L51.1986 17.3465" fill="black"/>
<path fill-rule="evenodd" clip-rule="evenodd" d="M8.84046 9.83677C8.84046 11.0371 8.86999 12.0381 8.27922 13.1041C7.80238 13.9708 7.04704 14.5038 6.20309 14.5038C5.05108 14.5038 4.38014 13.6025 4.38014 12.2721C4.38014 9.6461 6.67148 9.16943 8.84046 9.16943V9.83677ZM11.866 17.3465C11.6677 17.5285 11.3808 17.5415 11.1571 17.4202C10.1612 16.5708 9.98401 16.1765 9.43544 15.3662C7.78973 17.0908 6.62507 17.6065 4.48985 17.6065C1.96642 17.6065 0 16.0075 0 12.8051C0 10.3048 1.32079 8.60176 3.1986 7.76975C4.82744 7.03307 7.1019 6.90307 8.84046 6.6994V6.30073C8.84046 5.56839 8.89531 4.70171 8.47755 4.06904C8.11043 3.50137 7.40995 3.26737 6.79386 3.26737C5.6503 3.26737 4.62911 3.86971 4.38014 5.11772C4.3295 5.39506 4.13117 5.66806 3.86111 5.68106L0.949452 5.36039C0.704704 5.30406 0.434637 5.10038 0.502154 4.71472C1.1731 1.09201 4.35904 0 7.21162 0C8.67166 0 10.579 0.398672 11.731 1.53402C13.1911 2.9337 13.0518 4.80138 13.0518 6.83374V11.6351C13.0518 13.0781 13.6341 13.7108 14.1827 14.4908C14.3768 14.7682 14.419 15.1018 14.1743 15.3098C13.5624 15.8342 12.4737 16.8092 11.8745 17.3552L11.866 17.3465" fill="black"/>
</g>
<defs>
<clipPath id="clip0_319_2690">
<rect width="96.9412" height="30" fill="white"/>
</clipPath>
</defs>
</svg>
