<svg width="238" height="256" viewBox="0 0 238 256" fill="none" xmlns="http://www.w3.org/2000/svg">
<ellipse cx="2.40323" cy="2.5" rx="2.40323" ry="2.5" fill="#8AE700"/>
<ellipse cx="2.40323" cy="32.5" rx="2.40323" ry="2.5" fill="#8AE700"/>
<ellipse cx="2.40323" cy="62.5" rx="2.40323" ry="2.5" fill="#8AE700"/>
<ellipse cx="2.40323" cy="92.5" rx="2.40323" ry="2.5" fill="#8AE700"/>
<ellipse cx="2.40323" cy="122.5" rx="2.40323" ry="2.5" fill="#8AE700"/>
<ellipse cx="2.40323" cy="152.5" rx="2.40323" ry="2.5" fill="#8AE700"/>
<ellipse cx="31.2421" cy="2.5" rx="2.40323" ry="2.5" fill="#8AE700"/>
<ellipse cx="31.2421" cy="32.5" rx="2.40323" ry="2.5" fill="#8AE700"/>
<ellipse cx="31.2421" cy="62.5" rx="2.40323" ry="2.5" fill="#8AE700"/>
<ellipse cx="31.2421" cy="92.5" rx="2.40323" ry="2.5" fill="#8AE700"/>
<ellipse cx="31.2421" cy="122.5" rx="2.40323" ry="2.5" fill="#8AE700"/>
<ellipse cx="31.2421" cy="152.5" rx="2.40323" ry="2.5" fill="#8AE700"/>
<ellipse cx="60.081" cy="2.5" rx="2.40323" ry="2.5" fill="#8AE700"/>
<ellipse cx="60.081" cy="32.5" rx="2.40323" ry="2.5" fill="#8AE700"/>
<ellipse cx="60.081" cy="62.5" rx="2.40323" ry="2.5" fill="#8AE700"/>
<ellipse cx="60.081" cy="92.5" rx="2.40323" ry="2.5" fill="#8AE700"/>
<ellipse cx="60.081" cy="122.5" rx="2.40323" ry="2.5" fill="#8AE700"/>
<ellipse cx="60.081" cy="152.5" rx="2.40323" ry="2.5" fill="#8AE700"/>
<ellipse cx="88.9189" cy="2.5" rx="2.40323" ry="2.5" fill="#8AE700"/>
<ellipse cx="88.9189" cy="32.5" rx="2.40323" ry="2.5" fill="#8AE700"/>
<ellipse cx="88.9189" cy="62.5" rx="2.40323" ry="2.5" fill="#8AE700"/>
<ellipse cx="88.9189" cy="92.5" rx="2.40323" ry="2.5" fill="#8AE700"/>
<ellipse cx="88.9189" cy="122.5" rx="2.40323" ry="2.5" fill="#8AE700"/>
<ellipse cx="88.9189" cy="152.5" rx="2.40323" ry="2.5" fill="#8AE700"/>
<ellipse cx="117.759" cy="2.5" rx="2.40323" ry="2.5" fill="#8AE700"/>
<ellipse cx="117.759" cy="32.5" rx="2.40323" ry="2.5" fill="#8AE700"/>
<ellipse cx="117.759" cy="62.5" rx="2.40323" ry="2.5" fill="#8AE700"/>
<ellipse cx="117.759" cy="92.5" rx="2.40323" ry="2.5" fill="#8AE700"/>
<ellipse cx="117.759" cy="122.5" rx="2.40323" ry="2.5" fill="#8AE700"/>
<ellipse cx="117.759" cy="152.5" rx="2.40323" ry="2.5" fill="#8AE700"/>
<ellipse cx="146.597" cy="2.5" rx="2.40323" ry="2.5" fill="#8AE700"/>
<ellipse cx="146.597" cy="32.5" rx="2.40323" ry="2.5" fill="#8AE700"/>
<ellipse cx="146.597" cy="62.5" rx="2.40323" ry="2.5" fill="#8AE700"/>
<ellipse cx="146.597" cy="92.5" rx="2.40323" ry="2.5" fill="#8AE700"/>
<ellipse cx="146.597" cy="122.5" rx="2.40323" ry="2.5" fill="#8AE700"/>
<ellipse cx="146.597" cy="152.5" rx="2.40323" ry="2.5" fill="#8AE700"/>
<circle cx="124.855" cy="142.855" r="1.85484" fill="#F41266"/>
<circle cx="124.855" cy="165.113" r="1.85484" fill="#F41266"/>
<circle cx="124.855" cy="187.37" r="1.85484" fill="#F41266"/>
<circle cx="124.855" cy="209.629" r="1.85484" fill="#F41266"/>
<circle cx="124.855" cy="231.887" r="1.85484" fill="#F41266"/>
<circle cx="124.855" cy="254.145" r="1.85484" fill="#F41266"/>
<circle cx="147.113" cy="142.855" r="1.85484" fill="#F41266"/>
<circle cx="147.113" cy="165.113" r="1.85484" fill="#F41266"/>
<circle cx="147.113" cy="187.37" r="1.85484" fill="#F41266"/>
<circle cx="147.113" cy="209.629" r="1.85484" fill="#F41266"/>
<circle cx="147.113" cy="231.887" r="1.85484" fill="#F41266"/>
<circle cx="147.113" cy="254.145" r="1.85484" fill="#F41266"/>
<circle cx="169.371" cy="142.855" r="1.85484" fill="#F41266"/>
<circle cx="169.371" cy="165.113" r="1.85484" fill="#F41266"/>
<circle cx="169.371" cy="187.37" r="1.85484" fill="#F41266"/>
<circle cx="169.371" cy="209.629" r="1.85484" fill="#F41266"/>
<circle cx="169.371" cy="231.887" r="1.85484" fill="#F41266"/>
<circle cx="169.371" cy="254.145" r="1.85484" fill="#F41266"/>
<circle cx="191.628" cy="142.855" r="1.85484" fill="#F41266"/>
<circle cx="191.628" cy="165.113" r="1.85484" fill="#F41266"/>
<circle cx="191.628" cy="187.37" r="1.85484" fill="#F41266"/>
<circle cx="191.628" cy="209.629" r="1.85484" fill="#F41266"/>
<circle cx="191.628" cy="231.887" r="1.85484" fill="#F41266"/>
<circle cx="191.628" cy="254.145" r="1.85484" fill="#F41266"/>
<circle cx="213.887" cy="142.855" r="1.85484" fill="#F41266"/>
<circle cx="213.887" cy="165.113" r="1.85484" fill="#F41266"/>
<circle cx="213.887" cy="187.37" r="1.85484" fill="#F41266"/>
<circle cx="213.887" cy="209.629" r="1.85484" fill="#F41266"/>
<circle cx="213.887" cy="231.887" r="1.85484" fill="#F41266"/>
<circle cx="213.887" cy="254.145" r="1.85484" fill="#F41266"/>
<circle cx="236.145" cy="142.855" r="1.85484" fill="#F41266"/>
<circle cx="236.145" cy="165.113" r="1.85484" fill="#F41266"/>
<circle cx="236.145" cy="187.37" r="1.85484" fill="#F41266"/>
<circle cx="236.145" cy="209.629" r="1.85484" fill="#F41266"/>
<circle cx="236.145" cy="231.887" r="1.85484" fill="#F41266"/>
<circle cx="236.145" cy="254.145" r="1.85484" fill="#F41266"/>
</svg>
