<svg width="90" height="30" viewBox="0 0 90 30" fill="none" xmlns="http://www.w3.org/2000/svg">
<g clip-path="url(#clip0_319_2718)">
<path d="M38.0492 15.385C38.0492 19.5491 34.7653 22.6176 30.7352 22.6176C26.7051 22.6176 23.4211 19.5491 23.4211 15.385C23.4211 11.1915 26.7051 8.15234 30.7352 8.15234C34.7653 8.15234 38.0492 11.1915 38.0492 15.385ZM34.8474 15.385C34.8474 12.7828 32.9442 11.0023 30.7352 11.0023C28.5262 11.0023 26.6229 12.7828 26.6229 15.385C26.6229 17.961 28.5262 19.7676 30.7352 19.7676C32.9442 19.7676 34.8474 17.9578 34.8474 15.385Z" fill="#EA4335"/>
<path d="M53.8277 15.385C53.8277 19.5491 50.5438 22.6176 46.5137 22.6176C42.4836 22.6176 39.1997 19.5491 39.1997 15.385C39.1997 11.1947 42.4836 8.15234 46.5137 8.15234C50.5438 8.15234 53.8277 11.1915 53.8277 15.385ZM50.626 15.385C50.626 12.7828 48.7227 11.0023 46.5137 11.0023C44.3047 11.0023 42.4014 12.7828 42.4014 15.385C42.4014 17.961 44.3047 19.7676 46.5137 19.7676C48.7227 19.7676 50.626 17.9578 50.626 15.385Z" fill="#FBBC05"/>
<path d="M68.9489 8.5893V21.5741C68.9489 26.9154 65.7734 29.0969 62.0194 29.0969C58.4857 29.0969 56.3589 26.7523 55.5568 24.835L58.3444 23.6839C58.8407 24.861 60.057 26.2502 62.0162 26.2502C64.4191 26.2502 65.9082 24.7795 65.9082 22.011V20.9708H65.7964C65.0798 21.848 63.6992 22.6143 61.957 22.6143C58.3115 22.6143 54.9717 19.4643 54.9717 15.411C54.9717 11.3284 58.3115 8.15234 61.957 8.15234C63.6959 8.15234 65.0765 8.91865 65.7964 9.76973H65.9082V8.59256H68.9489V8.5893ZM66.135 15.411C66.135 12.8643 64.4224 11.0023 62.243 11.0023C60.034 11.0023 58.1833 12.8643 58.1833 15.411C58.1833 17.9317 60.034 19.7676 62.243 19.7676C64.4224 19.7676 66.135 17.9317 66.135 15.411Z" fill="#4285F4"/>
<path d="M73.9617 0.978516V22.1742H70.8389V0.978516H73.9617Z" fill="#34A853"/>
<path d="M86.1314 17.7647L88.6165 19.4082C87.8144 20.5854 85.8816 22.6137 82.5418 22.6137C78.3999 22.6137 75.3066 19.4376 75.3066 15.381C75.3066 11.08 78.4262 8.14844 82.1835 8.14844C85.967 8.14844 87.8177 11.1354 88.4226 12.7495L88.7546 13.5713L79.008 17.5756C79.7542 19.0267 80.9146 19.7669 82.5418 19.7669C84.1722 19.7669 85.303 18.9713 86.1314 17.7647ZM78.4821 15.1626L84.9973 12.4789C84.639 11.5756 83.5608 10.9463 82.2919 10.9463C80.6648 10.9463 78.3999 12.3713 78.4821 15.1626Z" fill="#EA4335"/>
<path d="M11.6006 13.5033V10.4348H22.0243C22.1262 10.9696 22.1788 11.6022 22.1788 12.287C22.1788 14.5892 21.5444 17.4359 19.4997 19.4642C17.511 21.5185 14.97 22.6142 11.6039 22.6142C5.36477 22.6142 0.118408 17.5729 0.118408 11.3838C0.118408 5.19462 5.36477 0.15332 11.6039 0.15332C15.0554 0.15332 17.5143 1.4968 19.3617 3.24789L17.179 5.4131C15.8542 4.18049 14.0594 3.2218 11.6006 3.2218C7.04453 3.2218 3.48121 6.86419 3.48121 11.3838C3.48121 15.9033 7.04453 19.5457 11.6006 19.5457C14.5558 19.5457 16.2388 18.3685 17.317 17.299C18.1914 16.4316 18.7667 15.1925 18.9935 13.5001L11.6006 13.5033Z" fill="#4285F4"/>
</g>
<defs>
<clipPath id="clip0_319_2718">
<rect width="89.4118" height="30" fill="white"/>
</clipPath>
</defs>
</svg>
