<svg width="32" height="32" viewBox="0 0 32 32" fill="none" xmlns="http://www.w3.org/2000/svg">
<path d="M12 13.333H2.66665C2.31302 13.333 1.97388 13.1925 1.72384 12.9425C1.47379 12.6924 1.33331 12.3533 1.33331 11.9997V2.66634C1.33331 2.31272 1.47379 1.97358 1.72384 1.72353C1.97388 1.47348 2.31302 1.33301 2.66665 1.33301H12C12.3536 1.33301 12.6927 1.47348 12.9428 1.72353C13.1928 1.97358 13.3333 2.31272 13.3333 2.66634V11.9997C13.3333 12.3533 13.1928 12.6924 12.9428 12.9425C12.6927 13.1925 12.3536 13.333 12 13.333Z" fill="#8AE700"/>
<path d="M12 30.666H2.66665C2.31302 30.666 1.97388 30.5255 1.72384 30.2755C1.47379 30.0254 1.33331 29.6863 1.33331 29.3327V19.9993C1.33331 19.6457 1.47379 19.3066 1.72384 19.0565C1.97388 18.8065 2.31302 18.666 2.66665 18.666H12C12.3536 18.666 12.6927 18.8065 12.9428 19.0565C13.1928 19.3066 13.3333 19.6457 13.3333 19.9993V29.3327C13.3333 29.6863 13.1928 30.0254 12.9428 30.2755C12.6927 30.5255 12.3536 30.666 12 30.666Z" fill="#8AE700"/>
<path d="M17.3333 2.66602H30.6666V5.33268H17.3333V2.66602Z" fill="#FD5D0F"/>
<path d="M30.6666 20H17.3333V22.6667H30.6666V20Z" fill="#FD5D0F"/>
<path d="M30.6666 26.666H17.3333V29.3327H30.6666V26.666Z" fill="#F41266"/>
<path d="M30.6666 9.33301H17.3333V11.9997H30.6666V9.33301Z" fill="#F41266"/>
</svg>
