<svg width="130" height="50" viewBox="0 0 130 50" fill="none" xmlns="http://www.w3.org/2000/svg">
<path d="M50.412 6.4938V18.6573C47.7856 21.9344 44.3042 24.4214 40.3526 25.8433C39.5121 26.1949 38.1881 26.5685 37.309 26.8377L35.7378 27.1893C34.6775 27.4585 33.2435 27.6069 32.1613 27.7937C27.9811 28.5184 24.1519 30.5883 21.2559 33.6886C16.9432 38.1497 14.6632 43.9732 13.7952 50H6.49378C5.64126 50.0007 4.79696 49.8334 4.00914 49.5077C3.22131 49.1819 2.50539 48.7041 1.90232 48.1016C1.29924 47.499 0.820828 46.7835 0.494418 45.9959C0.168007 45.2084 -3.05613e-07 44.3642 0 43.5117V6.4938C0 4.77153 0.684164 3.11981 1.90198 1.90199C3.1198 0.68417 4.77152 0 6.49378 0H43.9237C45.645 0.00145627 47.2953 0.686272 48.5119 1.90394C49.7286 3.1216 50.412 4.77249 50.412 6.4938Z" fill="black"/>
<path d="M50.4119 23.2939V43.495C50.4119 45.2158 49.7283 46.8661 48.5115 48.0829C47.2947 49.2997 45.6444 49.9833 43.9236 49.9833H25.6234C25.4421 44.0774 27.365 37.7649 32.8259 34.9135C33.0292 34.8311 33.5181 34.6224 33.7104 34.529C33.9851 34.4191 35.6003 33.8422 35.908 33.7269C36.9353 33.3862 38.3747 32.672 39.3801 32.238C40.3306 31.6886 41.7919 30.9799 42.6765 30.3646L43.8631 29.6009C44.1488 29.3922 45.4344 28.4143 45.7475 28.178C47.4865 26.7364 49.0518 25.0974 50.4119 23.2939Z" fill="black"/>
<path d="M71.1184 1.86768L70.4812 5.66946H65.5366V23.2499H60.3229V5.66946H55.2356V1.82373L71.1184 1.86768Z" fill="black"/>
<path d="M77.1233 12.136C76.8251 12.2806 76.5567 12.48 76.3322 12.7239C76.0603 13.0184 75.846 13.3613 75.7004 13.7347C75.5206 14.2023 75.4347 14.7008 75.4477 15.2016V23.2502H70.4812V15.0093C70.5009 13.9553 70.4107 12.9021 70.212 11.8668C70.075 11.1687 69.8689 10.4859 69.5967 9.82859C69.388 9.31315 69.1007 8.83315 68.7451 8.40566L72.7557 7.14206C72.926 7.35083 73.1073 7.59806 73.305 7.86726C73.4812 8.15174 73.639 8.44718 73.7775 8.75178C73.9599 9.14743 74.0981 9.56198 74.1896 9.98791C74.6024 9.09686 75.2524 8.33658 76.0685 7.79035C76.8486 7.33292 77.7411 7.10267 78.6451 7.12558C79.0434 7.12203 79.441 7.15885 79.8318 7.23547C80.1256 7.29682 80.4155 7.3757 80.6998 7.4717L79.4033 12.2459C79.2183 12.1462 79.023 12.067 78.8209 12.0097C78.5278 11.928 78.2241 11.891 77.9199 11.8998C77.6397 11.9162 77.3671 11.997 77.1233 12.136Z" fill="black"/>
<path d="M91.0888 7.39502H96.0827V15.6359C96.0644 16.6946 96.149 17.7525 96.3354 18.7949C96.4601 19.4887 96.661 20.1668 96.9343 20.8166C97.1351 21.3433 97.4354 21.8263 97.8188 22.2395L93.8082 23.5031C93.6018 23.28 93.4178 23.0371 93.2589 22.7779C93.0645 22.4929 92.8953 22.1914 92.7534 21.8769C92.5741 21.4654 92.4378 21.0365 92.3469 20.5969C91.8434 21.542 91.05 22.3007 90.0834 22.7615C89.1101 23.2156 88.0478 23.4464 86.9738 23.4372C86.2529 23.4557 85.5361 23.3228 84.8697 23.0471C84.3135 22.8014 83.8252 22.4244 83.4468 21.9484C83.0609 21.4403 82.7926 20.853 82.6611 20.2288C82.4932 19.4825 82.4121 18.7192 82.4194 17.9543V7.39502H87.4463V17.284C87.4248 17.8907 87.5161 18.4962 87.7155 19.0696C87.7832 19.2763 87.9175 19.4548 88.0974 19.5771C88.2774 19.6994 88.4928 19.7585 88.7099 19.7453C89.2978 19.7453 89.8471 19.3552 90.3581 18.5641C90.9194 17.5599 91.1824 16.4163 91.1162 15.2678L91.0888 7.39502Z" fill="black"/>
<path d="M105.06 7.11453C105.808 7.10858 106.555 7.17667 107.29 7.3178C107.904 7.43787 108.511 7.59008 109.109 7.7738C109.719 7.98806 110.279 8.20781 110.784 8.43855L109.202 11.9766L108.554 11.6635C108.29 11.5371 108.005 11.4108 107.702 11.2844C107.388 11.1561 107.065 11.0496 106.735 10.9658C106.416 10.8843 106.087 10.8418 105.758 10.8394C105.458 10.8305 105.162 10.9088 104.906 11.0646C104.791 11.1383 104.699 11.2415 104.638 11.3633C104.577 11.4851 104.55 11.621 104.56 11.7569C104.582 11.9614 104.651 12.1579 104.763 12.3306C104.874 12.5034 105.025 12.6474 105.203 12.7513C105.736 13.1333 106.316 13.4471 106.928 13.6852C108.022 14.1023 109.017 14.7421 109.85 15.5641C110.563 16.3658 110.932 17.4156 110.878 18.4869C110.88 19.1522 110.757 19.8119 110.515 20.4317C110.274 21.0548 109.899 21.6173 109.416 22.0799C108.905 22.5668 108.296 22.9411 107.631 23.1787C106.842 23.4613 106.008 23.599 105.17 23.5852C104.476 23.5897 103.784 23.5382 103.098 23.4314C102.502 23.3344 101.911 23.2023 101.329 23.0359C100.78 22.8765 100.313 22.7172 99.89 22.5634C99.467 22.4095 99.1319 22.2612 98.8792 22.1349L100.527 18.4979C100.715 18.5839 100.898 18.6792 101.077 18.7836C101.374 18.9491 101.68 19.0977 101.994 19.2286C102.352 19.3817 102.719 19.5138 103.093 19.6241C103.449 19.7325 103.819 19.7898 104.192 19.7945C104.574 19.8117 104.954 19.7244 105.291 19.5417C105.425 19.4672 105.535 19.3568 105.61 19.2229C105.685 19.0889 105.721 18.9368 105.714 18.7836C105.711 18.5776 105.662 18.3748 105.572 18.1897C105.482 18.0045 105.352 17.8415 105.192 17.7123C104.798 17.3666 104.344 17.0983 103.851 16.9211C102.568 16.4808 101.404 15.7493 100.45 14.784C99.7565 13.9609 99.3925 12.9097 99.4285 11.8338C99.42 11.1918 99.5473 10.5552 99.8021 9.96587C100.058 9.39852 100.433 8.89268 100.901 8.48251C101.416 8.04183 102.011 7.70424 102.653 7.48811C103.428 7.22557 104.242 7.09918 105.06 7.11453Z" fill="black"/>
<path d="M112.043 7.52119H114.63L115.18 4.2688L119.509 3.31836V7.52119H123.223L122.624 11.1911H119.492V18.2343C119.492 19.1628 119.976 19.6243 120.948 19.6243C121.458 19.6272 121.966 19.5756 122.465 19.4704L123.223 19.2781L124.074 22.6294C123.499 22.822 122.914 22.9852 122.322 23.1184C121.42 23.3152 120.498 23.4056 119.575 23.3876C118.266 23.4612 116.968 23.1189 115.866 22.4097C114.971 21.7559 114.52 20.6461 114.52 19.1133V11.1911H112.026L112.043 7.52119Z" fill="black"/>
<path d="M71.1186 26.3818L70.4538 30.2276H65.5093V47.808H60.2956V30.2276H55.2083V26.3818H71.1186Z" fill="black"/>
<path d="M70.1241 36.5397C70.4904 35.5216 71.0712 34.5942 71.8272 33.8202C72.5526 33.1016 73.4186 32.5405 74.3709 32.172C75.3819 31.7921 76.4554 31.6058 77.5354 31.6226C78.392 31.603 79.246 31.7255 80.0626 31.9852C80.6984 32.1912 81.2803 32.5366 81.7657 32.9961C82.2031 33.4214 82.5392 33.9396 82.7491 34.5124C82.9621 35.1157 83.068 35.7516 83.0622 36.3913C83.0699 37.1431 82.8805 37.8837 82.5128 38.5395C82.1002 39.2477 81.5377 39.8571 80.8647 40.325C80.0831 40.8824 79.2193 41.3143 78.3045 41.6051C77.2042 41.9647 76.064 42.188 74.9093 42.2698C75.0284 42.8467 75.3084 43.3782 75.7169 43.8026C75.9605 44.0144 76.2439 44.1754 76.5504 44.2763C76.857 44.3773 77.1807 44.4161 77.5024 44.3905C78.0008 44.3855 78.4976 44.3322 78.9857 44.2311C79.5351 44.1268 79.9966 44.0114 80.4416 43.8795C80.991 43.7367 81.4855 43.5664 81.9909 43.3741L82.9359 46.6704C82.3343 46.9591 81.7117 47.2015 81.0734 47.3956C80.524 47.5659 79.8428 47.7253 79.0956 47.8681C78.3101 48.0209 77.5115 48.0964 76.7113 48.0934C75.5872 48.1269 74.4674 47.9402 73.4149 47.544C72.5519 47.2035 71.7832 46.6609 71.1734 45.9617C70.5717 45.2527 70.1379 44.417 69.9043 43.5169C69.6309 42.4791 69.4979 41.4092 69.5088 40.336C69.4783 39.0434 69.6869 37.7564 70.1241 36.5397ZM75.8762 35.5123C75.5795 35.7598 75.346 36.0742 75.195 36.4298C75.0174 36.8339 74.8901 37.2583 74.8159 37.6934C74.7316 38.1415 74.6783 38.5949 74.6566 39.0504C75.2017 39.0454 75.7421 38.9488 76.2553 38.7647C76.6434 38.6221 77.0012 38.4078 77.3101 38.1329C77.5679 37.9065 77.7739 37.6273 77.9144 37.3143C78.0316 37.055 78.0952 36.7747 78.1012 36.4902C78.1178 36.1395 77.9999 35.7956 77.7716 35.5288C77.6608 35.4089 77.5253 35.3145 77.3745 35.2519C77.2238 35.1893 77.0612 35.1601 76.8981 35.1662C76.5272 35.1569 76.1651 35.2795 75.8762 35.5123Z" fill="black"/>
<path d="M85.2598 36.5397C85.628 35.5213 86.2107 34.5939 86.9684 33.8202C87.6919 33.0992 88.5584 32.5377 89.5121 32.172C90.5213 31.7922 91.5929 31.6058 92.6711 31.6226C93.5277 31.603 94.3817 31.7255 95.1983 31.9852C95.8342 32.1912 96.416 32.5366 96.9014 32.9961C97.3388 33.4214 97.6749 33.9396 97.8848 34.5124C98.0978 35.1157 98.2038 35.7516 98.1979 36.3913C98.2057 37.1431 98.0162 37.8837 97.6485 38.5395C97.2348 39.2469 96.6725 39.856 96.0004 40.325C95.2176 40.8802 94.3541 41.312 93.4402 41.6051C92.3379 41.9642 91.1959 42.1874 90.0395 42.2698C90.1586 42.8467 90.4386 43.3782 90.8471 43.8026C91.0907 44.0144 91.3741 44.1754 91.6807 44.2763C91.9873 44.3773 92.3109 44.4161 92.6326 44.3905C93.1311 44.3855 93.6279 44.3322 94.116 44.2311C94.6654 44.1268 95.1268 44.0114 95.5719 43.8795C96.0169 43.7477 96.6157 43.5664 97.1211 43.3741L98.0661 46.6704C97.4646 46.9591 96.842 47.2015 96.2037 47.3956C95.6543 47.5659 94.973 47.7253 94.2259 47.8681C93.4404 48.0212 92.6418 48.0966 91.8415 48.0934C90.7174 48.1269 89.5976 47.9402 88.5452 47.544C87.6821 47.2035 86.9134 46.6609 86.3037 45.9617C85.7017 45.2537 85.2695 44.4175 85.0401 43.5169C84.7667 42.4791 84.6336 41.4092 84.6445 40.336C84.6141 39.0434 84.8227 37.7564 85.2598 36.5397ZM91.0119 35.5123C90.7152 35.7598 90.4817 36.0742 90.3307 36.4298C90.1531 36.8339 90.0258 37.2583 89.9516 37.6934C89.87 38.1419 89.8168 38.5952 89.7923 39.0504C90.3374 39.0454 90.8779 38.9488 91.391 38.7647C91.7799 38.6237 92.138 38.4092 92.4458 38.1329C92.7036 37.9065 92.9097 37.6273 93.0502 37.3143C93.1674 37.055 93.2309 36.7747 93.237 36.4902C93.2535 36.1395 93.1356 35.7956 92.9073 35.5288C92.7985 35.4079 92.6642 35.3126 92.5141 35.2499C92.364 35.1872 92.2018 35.1586 92.0393 35.1662C91.6668 35.157 91.3029 35.2796 91.0119 35.5123Z" fill="black"/>
<path d="M109.861 47.7749V37.9133C109.88 37.3068 109.789 36.7019 109.592 36.1278C109.524 35.9211 109.39 35.7424 109.21 35.6194C109.03 35.4963 108.815 35.4356 108.598 35.4466C108.005 35.4466 107.461 35.8312 106.95 36.6003C106.39 37.5851 106.127 38.7107 106.192 39.8417V47.7749H101.198V39.534C101.215 38.4801 101.125 37.4272 100.928 36.3915C100.79 35.6938 100.584 35.0112 100.313 34.3533C100.105 33.8365 99.8155 33.3562 99.4561 32.9304L103.472 31.6668C103.671 31.8963 103.854 32.1385 104.021 32.392C104.219 32.673 104.385 32.9752 104.516 33.293C104.682 33.6967 104.812 34.1139 104.906 34.5401C105.409 33.5867 106.202 32.8173 107.169 32.3425C108.151 31.8757 109.225 31.639 110.312 31.6503C111.953 31.6503 113.123 32.1502 113.823 33.1501C114.568 34.3462 114.931 35.7418 114.861 37.1497V47.7364L109.861 47.7749Z" fill="black"/>
<path d="M123.223 31.6226C123.97 31.6182 124.715 31.6881 125.448 31.8313C126.061 31.9514 126.668 32.1036 127.266 32.2873C127.876 32.5016 128.436 32.7213 128.942 32.9521L127.36 36.4902L126.717 36.177C126.453 36.0525 126.167 35.9261 125.86 35.7979C125.547 35.6696 125.226 35.5631 124.898 35.4793C124.577 35.3981 124.247 35.3557 123.915 35.3529C123.616 35.3448 123.321 35.421 123.063 35.5727C122.949 35.6476 122.856 35.7518 122.796 35.8745C122.735 35.9971 122.708 36.1338 122.717 36.2704C122.74 36.4753 122.811 36.672 122.923 36.8447C123.036 37.0174 123.187 37.1613 123.366 37.2648C123.897 37.6481 124.475 37.9619 125.085 38.1988C126.18 38.6144 127.175 39.2544 128.008 40.0777C128.721 40.8791 129.09 41.929 129.035 43.0004C129.037 43.6657 128.914 44.3254 128.673 44.9453C128.44 45.566 128.074 46.1285 127.601 46.5934C127.089 47.0801 126.481 47.4543 125.816 47.6922C125.026 47.9794 124.19 48.1191 123.349 48.1043C122.656 48.1085 121.963 48.057 121.278 47.9504C120.681 47.8508 120.091 47.7187 119.509 47.5549C118.959 47.3955 118.492 47.2362 118.069 47.0769C117.725 46.9539 117.388 46.8127 117.059 46.6539L118.707 43.0169C118.895 43.1029 119.078 43.1983 119.256 43.3026C119.554 43.467 119.86 43.6156 120.174 43.7476C120.533 43.8965 120.9 44.0267 121.272 44.1377C121.628 44.2503 121.998 44.3096 122.371 44.3135C122.754 44.3307 123.134 44.2434 123.47 44.0607C123.604 43.9863 123.715 43.8758 123.789 43.7419C123.864 43.608 123.9 43.4558 123.893 43.3026C123.893 43.0927 123.847 42.8855 123.757 42.6956C123.668 42.5057 123.538 42.3378 123.377 42.2038C122.98 41.8619 122.523 41.5956 122.031 41.4182C120.749 40.9785 119.586 40.2469 118.635 39.281C117.939 38.4592 117.572 37.4077 117.608 36.3308C117.601 35.6884 117.731 35.0519 117.987 34.4629C118.241 33.8942 118.616 33.3879 119.086 32.9796C119.602 32.54 120.196 32.2025 120.838 31.9851C121.607 31.7287 122.413 31.6061 123.223 31.6226Z" fill="black"/>
</svg>
