<svg width="235" height="92" viewBox="0 0 235 92" fill="none" xmlns="http://www.w3.org/2000/svg">
<path d="M91.76 11.82V33.96C86.9795 39.925 80.6427 44.4518 73.45 47.04C71.92 47.68 69.51 48.36 67.91 48.85L65.05 49.49C63.12 49.98 60.51 50.25 58.54 50.59C50.9313 51.9092 43.9614 55.6768 38.69 61.32C30.84 69.44 26.69 80.04 25.11 91.01H11.82C10.2682 91.0113 8.73145 90.7068 7.29744 90.1139C5.86343 89.521 4.56032 88.6513 3.4626 87.5545C2.36489 86.4577 1.49407 85.1553 0.89994 83.7218C0.305807 82.2883 -5.56279e-07 80.7518 0 79.2V11.82C0 8.68515 1.24532 5.67869 3.462 3.46201C5.67868 1.24533 8.68514 0 11.82 0H79.95C83.0831 0.0026507 86.087 1.24915 88.3015 3.46555C90.5161 5.68194 91.76 8.68688 91.76 11.82Z" fill="white"/>
<path d="M91.76 42.4004V79.1704C91.76 82.3026 90.5158 85.3065 88.3009 87.5213C86.0861 89.7361 83.0822 90.9804 79.95 90.9804H46.64C46.31 80.2304 49.81 68.7404 59.75 63.5504C60.12 63.4004 61.01 63.0204 61.36 62.8504C61.86 62.6504 64.8 61.6004 65.36 61.3904C67.23 60.7704 69.85 59.4704 71.68 58.6804C73.41 57.6804 76.07 56.3904 77.68 55.2704L79.84 53.8804C80.36 53.5004 82.7 51.7204 83.27 51.2904C86.4353 48.6664 89.2844 45.683 91.76 42.4004Z" fill="white"/>
<path d="M129.45 3.40031L128.29 10.3203H119.29V42.3203H109.8V10.3203H100.54V3.32031L129.45 3.40031Z" fill="white"/>
<path d="M140.38 22.0896C139.837 22.3528 139.349 22.7158 138.94 23.1596C138.445 23.6957 138.055 24.3198 137.79 24.9996C137.463 25.8508 137.307 26.7581 137.33 27.6696V42.3196H128.29V27.3196C128.326 25.4011 128.162 23.4841 127.8 21.5996C127.551 20.3289 127.176 19.0861 126.68 17.8896C126.3 16.9514 125.777 16.0777 125.13 15.2996L132.43 12.9996C132.74 13.3796 133.07 13.8296 133.43 14.3196C133.751 14.8374 134.038 15.3752 134.29 15.9296C134.622 16.6498 134.874 17.4044 135.04 18.1796C135.791 16.5577 136.975 15.1739 138.46 14.1796C139.88 13.347 141.505 12.9279 143.15 12.9696C143.875 12.9632 144.599 13.0302 145.31 13.1696C145.845 13.2813 146.373 13.4249 146.89 13.5996L144.53 22.2896C144.193 22.1082 143.838 21.964 143.47 21.8596C142.937 21.7111 142.384 21.6437 141.83 21.6596C141.32 21.6895 140.824 21.8367 140.38 22.0896Z" fill="white"/>
<path d="M165.8 13.46H174.89V28.46C174.857 30.387 175.011 32.3127 175.35 34.21C175.577 35.473 175.943 36.7071 176.44 37.89C176.806 38.8486 177.352 39.7279 178.05 40.48L170.75 42.78C170.374 42.3738 170.039 41.9317 169.75 41.46C169.396 40.9411 169.088 40.3924 168.83 39.82C168.504 39.0709 168.256 38.2901 168.09 37.49C167.174 39.2102 165.73 40.5912 163.97 41.43C162.199 42.2565 160.265 42.6767 158.31 42.66C156.998 42.6936 155.693 42.4517 154.48 41.95C153.468 41.5027 152.579 40.8164 151.89 39.95C151.188 39.0252 150.699 37.9562 150.46 36.82C150.154 35.4615 150.007 34.0723 150.02 32.68V13.46H159.17V31.46C159.131 32.5643 159.297 33.6663 159.66 34.71C159.783 35.0863 160.028 35.4112 160.355 35.6338C160.683 35.8563 161.075 35.964 161.47 35.94C162.54 35.94 163.54 35.23 164.47 33.79C165.492 31.9621 165.971 29.8805 165.85 27.79L165.8 13.46Z" fill="white"/>
<path d="M191.23 12.9495C192.592 12.9387 193.952 13.0626 195.29 13.3195C196.407 13.5381 197.512 13.8151 198.6 14.1495C199.71 14.5395 200.73 14.9395 201.65 15.3595L198.77 21.7995L197.59 21.2295C197.11 20.9995 196.59 20.7695 196.04 20.5395C195.467 20.3059 194.879 20.1121 194.28 19.9595C193.698 19.8112 193.1 19.734 192.5 19.7295C191.955 19.7134 191.416 19.8558 190.95 20.1395C190.741 20.2736 190.573 20.4614 190.462 20.6831C190.351 20.9048 190.302 21.1523 190.32 21.3995C190.36 21.7718 190.486 22.1295 190.689 22.4439C190.893 22.7583 191.167 23.0205 191.49 23.2095C192.462 23.905 193.516 24.4761 194.63 24.9095C196.621 25.6687 198.433 26.8333 199.95 28.3295C201.247 29.7888 201.919 31.6995 201.82 33.6495C201.824 34.8605 201.6 36.0613 201.16 37.1895C200.72 38.3235 200.038 39.3475 199.16 40.1895C198.228 41.0758 197.121 41.7571 195.91 42.1895C194.473 42.704 192.956 42.9547 191.43 42.9295C190.168 42.9376 188.907 42.844 187.66 42.6495C186.573 42.4729 185.498 42.2325 184.44 41.9295C183.44 41.6395 182.59 41.3495 181.82 41.0695C181.05 40.7895 180.44 40.5195 179.98 40.2895L182.98 33.6695C183.322 33.8261 183.656 33.9996 183.98 34.1895C184.521 34.4908 185.078 34.7613 185.65 34.9995C186.302 35.2783 186.97 35.5187 187.65 35.7195C188.299 35.9168 188.972 36.0212 189.65 36.0295C190.346 36.061 191.038 35.9019 191.65 35.5695C191.894 35.434 192.095 35.233 192.231 34.9891C192.367 34.7453 192.433 34.4684 192.42 34.1895C192.415 33.8146 192.327 33.4455 192.163 33.1085C191.998 32.7714 191.762 32.4747 191.47 32.2395C190.754 31.6104 189.927 31.1219 189.03 30.7995C186.694 29.998 184.575 28.6665 182.84 26.9095C181.577 25.4113 180.914 23.498 180.98 21.5395C180.964 20.3709 181.196 19.2123 181.66 18.1395C182.126 17.1069 182.808 16.1861 183.66 15.4395C184.598 14.6374 185.681 14.0229 186.85 13.6295C188.26 13.1517 189.742 12.9216 191.23 12.9495Z" fill="white"/>
<path d="M203.94 13.69H208.65L209.65 7.77003L217.53 6.04004V13.69H224.29L223.2 20.37H217.5V33.19C217.5 34.88 218.38 35.72 220.15 35.72C221.077 35.7254 222.003 35.6315 222.91 35.44L224.29 35.09L225.84 41.19C224.793 41.5406 223.728 41.8377 222.65 42.08C221.008 42.4384 219.33 42.6028 217.65 42.57C215.269 42.704 212.906 42.0809 210.9 40.79C209.27 39.6 208.45 37.58 208.45 34.79V20.37H203.91L203.94 13.69Z" fill="white"/>
<path d="M129.45 48.0195L128.24 55.0195H119.24V87.0195H109.75V55.0195H100.49V48.0195H129.45Z" fill="white"/>
<path d="M127.64 66.5103C128.307 64.6572 129.364 62.9691 130.74 61.5603C132.06 60.2523 133.637 59.231 135.37 58.5603C137.21 57.8689 139.164 57.5296 141.13 57.5603C142.689 57.5246 144.244 57.7476 145.73 58.2203C146.887 58.5952 147.947 59.2238 148.83 60.0603C149.626 60.8344 150.238 61.7777 150.62 62.8203C151.008 63.9185 151.201 65.0758 151.19 66.2403C151.204 67.6087 150.859 68.9568 150.19 70.1503C149.439 71.4395 148.415 72.5487 147.19 73.4003C145.767 74.4149 144.195 75.201 142.53 75.7303C140.527 76.385 138.452 76.7914 136.35 76.9403C136.567 77.9904 137.076 78.9577 137.82 79.7303C138.263 80.1157 138.779 80.4089 139.337 80.5926C139.895 80.7763 140.484 80.8469 141.07 80.8003C141.977 80.7914 142.881 80.6943 143.77 80.5103C144.77 80.3203 145.61 80.1103 146.42 79.8703C147.42 79.6103 148.32 79.3003 149.24 78.9503L150.96 84.9503C149.865 85.4757 148.732 85.917 147.57 86.2703C146.57 86.5803 145.33 86.8703 143.97 87.1303C142.54 87.4085 141.087 87.5459 139.63 87.5403C137.584 87.6013 135.546 87.2616 133.63 86.5403C132.059 85.9207 130.66 84.933 129.55 83.6603C128.455 82.3699 127.665 80.8487 127.24 79.2103C126.742 77.3212 126.5 75.3738 126.52 73.4203C126.464 71.0677 126.844 68.725 127.64 66.5103ZM138.11 64.6403C137.57 65.0907 137.145 65.6632 136.87 66.3103C136.547 67.0459 136.315 67.8183 136.18 68.6103C136.026 69.426 135.93 70.2513 135.89 71.0803C136.882 71.0712 137.866 70.8954 138.8 70.5603C139.506 70.3008 140.158 69.9107 140.72 69.4103C141.189 68.9982 141.564 68.4901 141.82 67.9203C142.033 67.4484 142.149 66.9382 142.16 66.4203C142.19 65.7819 141.975 65.156 141.56 64.6703C141.358 64.4522 141.112 64.2802 140.837 64.1663C140.563 64.0524 140.267 63.9992 139.97 64.0103C139.295 63.9934 138.636 64.2166 138.11 64.6403Z" fill="white"/>
<path d="M155.19 66.5103C155.86 64.6566 156.921 62.9685 158.3 61.5603C159.617 60.248 161.194 59.226 162.93 58.5603C164.767 57.869 166.718 57.5297 168.68 57.5603C170.239 57.5246 171.794 57.7476 173.28 58.2203C174.437 58.5952 175.497 59.2238 176.38 60.0603C177.176 60.8344 177.788 61.7777 178.17 62.8203C178.558 63.9185 178.751 65.0758 178.74 66.2403C178.754 67.6087 178.409 68.9568 177.74 70.1503C176.987 71.4379 175.963 72.5468 174.74 73.4003C173.315 74.411 171.743 75.1968 170.08 75.7303C168.074 76.3841 165.995 76.7904 163.89 76.9403C164.107 77.9904 164.616 78.9577 165.36 79.7303C165.803 80.1157 166.319 80.4089 166.877 80.5926C167.435 80.7763 168.024 80.8469 168.61 80.8003C169.517 80.7914 170.422 80.6943 171.31 80.5103C172.31 80.3203 173.15 80.1103 173.96 79.8703C174.77 79.6303 175.86 79.3003 176.78 78.9503L178.5 84.9503C177.405 85.4757 176.272 85.917 175.11 86.2703C174.11 86.5803 172.87 86.8703 171.51 87.1303C170.08 87.409 168.627 87.5463 167.17 87.5403C165.124 87.6013 163.086 87.2616 161.17 86.5403C159.599 85.9207 158.2 84.933 157.09 83.6603C155.994 82.3716 155.208 80.8496 154.79 79.2103C154.292 77.3212 154.05 75.3738 154.07 73.4203C154.015 71.0677 154.394 68.7251 155.19 66.5103ZM165.66 64.6403C165.12 65.0907 164.695 65.6632 164.42 66.3103C164.097 67.0459 163.865 67.8183 163.73 68.6103C163.581 69.4268 163.485 70.2517 163.44 71.0803C164.432 71.0712 165.416 70.8954 166.35 70.5603C167.058 70.3037 167.71 69.9133 168.27 69.4103C168.739 68.9982 169.114 68.4901 169.37 67.9203C169.583 67.4484 169.699 66.9382 169.71 66.4203C169.74 65.7819 169.526 65.156 169.11 64.6703C168.912 64.4502 168.667 64.2768 168.394 64.1627C168.121 64.0486 167.826 63.9965 167.53 64.0103C166.852 63.9936 166.19 64.2167 165.66 64.6403Z" fill="white"/>
<path d="M199.97 86.9601V69.0101C200.004 67.9061 199.838 66.805 199.48 65.7601C199.356 65.3837 199.111 65.0586 198.784 64.8346C198.457 64.6106 198.066 64.5001 197.67 64.5201C196.59 64.5201 195.6 65.2201 194.67 66.6201C193.651 68.4127 193.172 70.4615 193.29 72.5201V86.9601H184.2V71.9601C184.231 70.0417 184.067 68.1252 183.71 66.2401C183.458 64.9701 183.083 63.7276 182.59 62.5301C182.211 61.5894 181.684 60.7151 181.03 59.9401L188.34 57.6401C188.702 58.0578 189.036 58.4987 189.34 58.9601C189.7 59.4717 190.002 60.0217 190.24 60.6001C190.542 61.3349 190.779 62.0944 190.95 62.8701C191.866 61.1347 193.308 59.7343 195.07 58.8701C196.856 58.0204 198.812 57.5895 200.79 57.6101C203.777 57.6101 205.907 58.5201 207.18 60.3401C208.538 62.5172 209.197 65.0575 209.07 67.6201V86.8901L199.97 86.9601Z" fill="white"/>
<path d="M224.29 57.5593C225.649 57.5513 227.006 57.6786 228.34 57.9393C229.457 58.1578 230.562 58.4349 231.65 58.7693C232.76 59.1593 233.78 59.5593 234.7 59.9793L231.82 66.4193L230.65 65.8493C230.17 65.6226 229.65 65.3926 229.09 65.1593C228.521 64.9257 227.936 64.7319 227.34 64.5793C226.755 64.4316 226.154 64.3544 225.55 64.3493C225.006 64.3346 224.469 64.4732 224 64.7493C223.792 64.8857 223.623 65.0754 223.512 65.2987C223.402 65.5219 223.353 65.7707 223.37 66.0193C223.412 66.3922 223.54 66.7503 223.745 67.0646C223.95 67.3789 224.226 67.6408 224.55 67.8293C225.517 68.5269 226.569 69.0982 227.68 69.5293C229.673 70.2858 231.485 71.4508 233 72.9493C234.298 74.408 234.97 76.3191 234.87 78.2693C234.874 79.4802 234.65 80.681 234.21 81.8093C233.786 82.9392 233.12 83.963 232.26 84.8093C231.328 85.6951 230.221 86.3763 229.01 86.8093C227.572 87.332 226.05 87.5862 224.52 87.5593C223.258 87.567 221.997 87.4733 220.75 87.2793C219.664 87.0979 218.59 86.8575 217.53 86.5593C216.53 86.2693 215.68 85.9793 214.91 85.6893C214.284 85.4653 213.669 85.2083 213.07 84.9193L216.07 78.2993C216.412 78.4559 216.746 78.6294 217.07 78.8193C217.612 79.1186 218.169 79.389 218.74 79.6293C219.394 79.9003 220.062 80.1373 220.74 80.3393C221.387 80.5443 222.061 80.6522 222.74 80.6593C223.436 80.6908 224.128 80.5317 224.74 80.1993C224.984 80.0637 225.185 79.8627 225.322 79.6189C225.458 79.3751 225.523 79.0982 225.51 78.8193C225.51 78.4374 225.426 78.0601 225.263 77.7145C225.101 77.3688 224.864 77.0632 224.57 76.8193C223.848 76.1969 223.017 75.7122 222.12 75.3893C219.786 74.589 217.671 73.2573 215.94 71.4993C214.672 70.0034 214.005 68.0894 214.07 66.1293C214.058 64.96 214.293 63.8014 214.76 62.7293C215.222 61.6942 215.904 60.7727 216.76 60.0293C217.699 59.2292 218.782 58.6149 219.95 58.2193C221.348 57.7526 222.816 57.5293 224.29 57.5593Z" fill="white"/>
</svg>
