<svg width="115" height="25" viewBox="0 0 115 25" fill="none" xmlns="http://www.w3.org/2000/svg">
<g clip-path="url(#clip0_319_2709)">
<path d="M40.5306 14.0391L39.8462 15.9665H39.7892C39.6751 15.5319 39.466 14.8705 39.1238 14.0769L35.4548 4.91268H31.8618V19.5188H34.2381V10.5057C34.2381 9.93884 34.2381 9.2964 34.2191 8.50279C34.2001 8.10599 34.1621 7.80367 34.1431 7.57692H34.2001C34.3142 8.14378 34.4472 8.55948 34.5423 8.82401L38.9527 19.481H40.6257L44.9981 8.72954C45.0931 8.4839 45.1882 7.99262 45.2832 7.57692H45.3403C45.2832 8.65396 45.2452 9.61762 45.2262 10.2034V19.4621H47.7546V4.87489H44.2947L40.5306 14.0391ZM50.1499 8.99407H52.6213V19.4621H50.1499V8.99407ZM51.4046 4.57256C50.9864 4.57256 50.6442 4.72372 50.359 4.98826C50.0739 5.25279 49.9218 5.59291 49.9218 6.00861C49.9218 6.40541 50.0739 6.74553 50.359 7.01006C50.6442 7.2746 50.9864 7.40686 51.4046 7.40686C51.8229 7.40686 52.1841 7.2557 52.4502 7.01006C52.7354 6.74553 52.8874 6.40541 52.8874 6.00861C52.8874 5.6118 52.7354 5.27169 52.4502 4.98826C52.2031 4.72372 51.8419 4.57256 51.4046 4.57256ZM61.3851 8.8996C60.9289 8.80512 60.4536 8.74843 59.9974 8.74843C58.8758 8.74843 57.8492 8.99407 56.9937 9.48535C56.1382 9.97663 55.4539 10.6569 55.0166 11.5072C54.5604 12.3763 54.3322 13.3778 54.3322 14.5304C54.3322 15.5319 54.5604 16.4199 54.9976 17.2324C55.4349 18.026 56.0432 18.6685 56.8606 19.1031C57.6401 19.5377 58.5526 19.7644 59.5791 19.7644C60.7578 19.7644 61.7654 19.5188 62.5638 19.0653L62.5828 19.0464V16.779L62.4878 16.8545C62.1266 17.1191 61.7083 17.3458 61.2901 17.4781C60.8529 17.6292 60.4536 17.7048 60.1114 17.7048C59.1229 17.7048 58.3435 17.4214 57.7922 16.7979C57.2218 16.1932 56.9367 15.3618 56.9367 14.3226C56.9367 13.2455 57.2218 12.3952 57.8112 11.7717C58.4005 11.1481 59.1799 10.8269 60.1305 10.8269C60.9289 10.8269 61.7463 11.0915 62.4878 11.6205L62.5828 11.6961V9.2964L62.5638 9.2775C62.2406 9.14524 61.8794 8.99407 61.3851 8.8996ZM69.5407 8.82401C68.9323 8.82401 68.362 9.01297 67.8677 9.40977C67.4495 9.74989 67.1643 10.2412 66.9172 10.8269H66.8982V8.99407H64.4268V19.4621H66.8982V14.1147C66.8982 13.2077 67.0883 12.4519 67.5065 11.904C67.9248 11.3371 68.4571 11.0537 69.1034 11.0537C69.3315 11.0537 69.5597 11.1104 69.8448 11.1481C70.111 11.2237 70.3011 11.2993 70.4342 11.3938L70.5292 11.4694V9.01297L70.4722 8.99407C70.3011 8.8807 69.9589 8.82401 69.5407 8.82401ZM76.2704 8.76733C74.5404 8.76733 73.1527 9.2775 72.1831 10.279C71.1946 11.2804 70.7193 12.6598 70.7193 14.3981C70.7193 16.0231 71.2136 17.3458 72.1641 18.3095C73.1146 19.2542 74.4074 19.7455 76.0232 19.7455C77.7152 19.7455 79.0649 19.2354 80.0345 18.215C81.023 17.1947 81.4983 15.8342 81.4983 14.1525C81.4983 12.4897 81.042 11.167 80.1105 10.2034C79.217 9.23971 77.9053 8.76733 76.2704 8.76733ZM78.2475 16.8167C77.7912 17.4025 77.0688 17.6859 76.1753 17.6859C75.2818 17.6859 74.5594 17.4025 74.0462 16.779C73.5329 16.1932 73.2857 15.3429 73.2857 14.2659C73.2857 13.151 73.5519 12.3008 74.0462 11.6961C74.5594 11.0915 75.2628 10.7891 76.1563 10.7891C77.0308 10.7891 77.7152 11.0726 78.2095 11.6583C78.7037 12.2441 78.9699 13.0944 78.9699 14.2092C78.9319 15.3429 78.7227 16.231 78.2475 16.8167ZM87.0113 13.34C86.2319 13.0188 85.7376 12.7731 85.5095 12.5653C85.3194 12.3763 85.2243 12.1118 85.2243 11.7717C85.2243 11.4883 85.3384 11.2048 85.6236 11.0159C85.9087 10.8269 86.2319 10.7324 86.7072 10.7324C87.1254 10.7324 87.5626 10.808 87.9809 10.9214C88.3991 11.0348 88.7793 11.2048 89.0835 11.4316L89.1785 11.5072V9.20192L89.1215 9.18303C88.8363 9.06965 88.4561 8.95628 87.9999 8.86181C87.5436 8.78622 87.1254 8.74843 86.7832 8.74843C85.6045 8.74843 84.635 9.03186 83.8746 9.65541C83.1142 10.2412 82.753 11.0348 82.753 11.9606C82.753 12.4519 82.829 12.8865 83.0001 13.2455C83.1712 13.6045 83.4183 13.9447 83.7605 14.2281C84.1027 14.4926 84.597 14.7949 85.2814 15.0784C85.8517 15.324 86.2889 15.513 86.5551 15.6641C86.8212 15.8153 86.9923 15.9854 87.1254 16.1176C87.2204 16.2688 87.2775 16.4577 87.2775 16.7034C87.2775 17.4025 86.7452 17.7426 85.6616 17.7426C85.2433 17.7426 84.8061 17.667 84.2928 17.497C83.7795 17.3269 83.3043 17.0813 82.9051 16.7979L82.81 16.7223V19.122L82.867 19.1409C83.2282 19.3109 83.6655 19.4243 84.1978 19.5566C84.7301 19.651 85.2053 19.7266 85.6236 19.7266C86.8973 19.7266 87.9428 19.4432 88.6842 18.8197C89.4447 18.215 89.8439 17.4403 89.8439 16.4388C89.8439 15.7397 89.6538 15.1162 89.2356 14.6438C88.6842 14.1903 87.9999 13.7179 87.0113 13.34ZM96.3645 8.76733C94.6345 8.76733 93.2468 9.2775 92.2772 10.279C91.3077 11.2804 90.8134 12.6598 90.8134 14.3981C90.8134 16.0231 91.3077 17.3458 92.2582 18.3095C93.2088 19.2542 94.5015 19.7455 96.1174 19.7455C97.8093 19.7455 99.159 19.2354 100.129 18.215C101.117 17.1947 101.592 15.8342 101.592 14.1525C101.592 12.4897 101.136 11.167 100.205 10.2034C99.3111 9.23971 97.9994 8.76733 96.3645 8.76733ZM98.3226 16.8167C97.8663 17.4025 97.1439 17.6859 96.2504 17.6859C95.3379 17.6859 94.6345 17.4025 94.1213 16.779C93.608 16.1932 93.3608 15.3429 93.3608 14.2659C93.3608 13.151 93.627 12.3008 94.1213 11.6961C94.6345 11.0915 95.3379 10.7891 96.2314 10.7891C97.0869 10.7891 97.7903 11.0726 98.2846 11.6583C98.7788 12.2441 99.045 13.0944 99.045 14.2092C99.045 15.3429 98.7979 16.231 98.3226 16.8167ZM114.805 11.0159V8.99407H112.314V5.89524L112.238 5.91413L109.881 6.61326L109.824 6.63215V8.99407H106.098V7.6714C106.098 7.06675 106.25 6.59436 106.516 6.29204C106.782 5.98971 107.181 5.83855 107.676 5.83855C108.018 5.83855 108.379 5.91413 108.778 6.08419L108.873 6.14087V4.0057L108.816 3.98681C108.474 3.87343 108.018 3.79785 107.429 3.79785C106.687 3.79785 106.041 3.96791 105.452 4.25134C104.862 4.57256 104.425 5.00715 104.102 5.59291C103.779 6.15977 103.608 6.80221 103.608 7.53913V8.99407H101.878V10.997H103.608V19.4621H106.098V11.0159H109.824V16.4011C109.824 18.6118 110.87 19.7266 112.961 19.7266C113.303 19.7266 113.664 19.6699 114.006 19.6133C114.367 19.5377 114.634 19.4432 114.786 19.3676L114.805 19.3487V17.3269L114.71 17.4025C114.558 17.497 114.424 17.5726 114.196 17.6292C114.006 17.6859 113.835 17.7048 113.702 17.7048C113.208 17.7048 112.866 17.5915 112.618 17.308C112.39 17.0435 112.276 16.6089 112.276 15.9665V11.0159H114.805Z" fill="#737373"/>
<path d="M0 0H11.6534V11.5828H0V0Z" fill="#F25022"/>
<path d="M12.8701 0H24.5236V11.5828H12.8701V0Z" fill="#7FBA00"/>
<path d="M0 12.792H11.6534V24.3748H0V12.792Z" fill="#00A4EF"/>
<path d="M12.8701 12.792H24.5236V24.3748H12.8701V12.792Z" fill="#FFB900"/>
</g>
<defs>
<clipPath id="clip0_319_2709">
<rect width="114.824" height="24.375" fill="white"/>
</clipPath>
</defs>
</svg>
