<svg width="93" height="32" viewBox="0 0 93 32" fill="none" xmlns="http://www.w3.org/2000/svg">
<g clip-path="url(#clip0_319_2727)">
<path fill-rule="evenodd" clip-rule="evenodd" d="M81.2953 14.8508L75.4249 25.008L70.4165 25.0279L81.2953 5.90986L92.1334 25.0279H87.0456L81.2953 14.8498V14.8508ZM65.4883 20.6062H71.0978L68.4934 25.0279H61.182L61.2019 19.644V6.0274H65.5092L65.4893 20.6062H65.4883ZM50.1039 6.02839C55.4525 6.04832 59.7797 10.2917 59.7598 15.5371C59.74 20.7636 55.4129 25.008 50.0632 25.008C44.7344 24.988 40.4073 20.7447 40.4073 15.4983C40.4271 10.2718 44.7542 6.02839 50.1039 6.02839ZM50.084 20.5873C52.9483 20.5873 55.2512 18.3272 55.2512 15.5371C55.272 12.748 52.9483 10.468 50.1039 10.468C47.2585 10.4481 44.9347 12.7281 44.9347 15.5182C44.9149 18.3072 47.2386 20.5873 50.0831 20.5873H50.084ZM32.4344 14.028C32.3749 13.2411 32.1735 12.2002 31.873 11.1991C31.2547 9.13135 30.1797 7.23039 28.7281 5.63793C27.9664 4.81316 27.1056 4.04617 25.8222 3.14271C24.8439 2.65781 23.882 2.14022 22.9381 1.5908C22.3173 1.23718 21.5754 0.803882 20.5945 0.490113C19.4315 0.214396 18.2427 0.0631423 17.0479 0.0388824C15.8876 -0.000961356 14.7242 0.098648 13.6025 0.313804C12.4203 0.510035 11.4385 0.823804 10.1362 1.13857C7.19067 2.41556 4.9076 4.34101 2.94388 6.89599C-3.90732 16.5033 2.28335 29.9625 13.7225 31.5533C15.6059 31.8093 17.4893 31.7107 19.2715 31.2983L20.534 30.9646C20.5737 30.9447 20.6342 30.9248 20.6739 30.9248L22.1169 30.3749C22.1963 30.3351 22.2568 30.3152 22.3371 30.2763L22.9381 30.0014C24.0913 29.4298 25.1738 28.7244 26.1634 27.8996C25.2626 28.7217 24.2828 29.4521 23.2386 30.0801L23.2981 30.1199C23.4995 30.0602 23.679 30.0014 23.8793 29.9625C23.8793 29.9625 23.8793 30.2763 23.8396 30.2175C23.5193 30.4536 24.0201 30.2375 24.6608 29.9028C25.3025 29.5691 25.9234 29.1557 26.4837 28.6845C27.3059 27.9972 28.0269 27.2502 29.0484 26.0329C30.0898 24.2051 31.393 22.6134 31.994 20.4718C32.1944 19.902 32.3739 19.2346 32.4949 18.5463C32.6139 17.859 32.6952 17.1518 32.6952 16.4246C32.6754 15.6975 32.595 14.9504 32.4344 14.028ZM17.6093 30.1787C21.1152 29.6278 24.0598 27.6835 26.4639 25.0309C27.1254 24.0677 27.6461 23.1831 28.2868 22.2209C29.0881 20.2556 29.0286 18.5075 29.2885 17.2703C29.6098 15.0291 28.8481 13.2222 28.2074 11.2967C27.2256 9.05652 25.9234 7.38707 23.6393 6.09015C17.8691 2.51418 10.0162 3.51525 6.2703 8.86029C6.25046 8.86029 6.1493 8.99775 5.94896 9.27267C6.2098 8.17299 6.87132 7.52453 7.53184 6.895C9.49556 5.28431 11.7796 4.00632 14.384 3.37878C17.3296 3.06402 20.2534 3.37878 22.8776 4.65578C26.805 6.895 29.4095 10.4132 30.07 14.5769V18.4288C29.2488 24.736 23.8396 29.5302 17.6093 30.1787ZM32.0139 15.8349C31.873 6.60115 22.7179 0.372574 13.8028 1.63064C11.1984 2.2781 8.35303 3.57502 6.32981 5.38293C5.34795 6.03039 4.88776 7.22968 3.9059 8.19191C-0.0215365 13.9493 0.660806 21.3174 5.54829 25.7979C6.17522 26.4204 6.84464 26.9982 7.55167 27.5271C3.46555 25.0697 1.62184 21.3553 0.981151 16.838C0.981151 15.2263 1.30149 13.6346 1.64167 12.0239C3.92673 4.96955 11.1181 -0.158344 18.9522 1.13857C20.2544 1.45334 21.5566 1.78703 22.8796 2.10179C24.522 2.74925 26.1445 3.71248 27.4467 4.99046C28.7489 6.26646 29.7308 7.87814 30.7127 9.4689C31.3732 10.7469 31.6945 12.3576 32.0149 13.6346C32.0744 14.3617 32.0744 15.1088 32.0149 15.8359L32.0139 15.8349Z" fill="black"/>
<path fill-rule="evenodd" clip-rule="evenodd" d="M23.8804 15.973C23.8804 19.9425 20.555 23.1648 16.448 23.1648C12.342 23.1648 9.01562 19.9425 9.01562 15.973C9.01562 12.0046 12.3411 8.78223 16.448 8.78223C20.555 8.78223 23.8804 12.0046 23.8804 15.974V15.973Z" fill="white"/>
<path fill-rule="evenodd" clip-rule="evenodd" d="M23.9208 14.7551C23.8206 14.2053 23.66 13.773 23.5003 13.1643C22.8586 11.8276 21.9174 10.7867 20.6747 9.90214C16.0272 6.81824 9.63622 9.7846 8.95586 15.051C8.69601 17.1338 9.43687 19.1379 10.7589 20.6709C10.3582 20.2575 9.91788 19.8262 9.61737 19.3342L9.5777 19.374C9.61737 19.4915 9.77804 19.5702 9.81771 19.6878C9.81771 19.6878 9.65705 19.6878 9.69771 19.6678C9.5777 19.5314 9.67787 19.7475 9.85738 20.0414C10.0181 20.3362 10.2184 20.6121 10.4584 20.8671C10.7996 21.2407 11.1596 21.5744 11.7606 22.0266C12.6433 22.4778 13.4238 23.0675 14.4453 23.3424C14.726 23.4221 15.0464 23.4998 15.3677 23.5586C15.7079 23.6184 16.0282 23.6383 16.3892 23.6383C16.7294 23.6383 17.0904 23.5984 17.5308 23.5187C17.9849 23.465 18.4337 23.3734 18.8726 23.2448C19.8531 22.9484 20.7563 22.4382 21.5177 21.7507C21.8986 21.3981 22.4401 20.9458 22.8596 20.3561C23.2008 19.6888 23.2404 19.3541 23.4011 19.0592C23.5608 18.7644 23.7611 18.4307 23.9019 17.9785C24.0167 17.442 24.0838 16.8963 24.1023 16.3479C24.0824 15.798 24.0428 15.2671 23.9218 14.7561L23.9208 14.7551ZM19.1523 11.1014C19.8337 11.4939 19.9338 11.5527 19.5728 11.2977C20.0945 11.4152 20.4149 11.7101 20.7352 12.0049C21.5167 12.8894 22.1574 13.9303 22.4778 15.1286C22.6583 16.4843 22.5174 17.84 21.9372 19.0393C20.8959 20.8661 19.2327 22.0844 17.2491 22.4181C17.0289 22.4181 16.7889 22.4181 16.5678 22.438C17.1291 22.3394 17.4901 21.9858 18.5116 21.6122C19.6125 21.2198 20.8552 19.3929 21.4572 18.3311C23.2196 15.4424 21.1359 12.7709 19.1523 11.1014ZM15.3865 22.4569C12.3418 22.1431 9.99723 19.6479 9.67688 16.7593C9.95656 18.3709 10.9186 19.6081 12.2208 20.7088C12.682 21.0036 13.3623 21.416 13.8235 21.7108C14.605 22.0057 15.0652 22.3204 15.8269 22.4579H15.3865V22.4569ZM23.5796 17.2115C23.4408 17.8211 23.2999 18.4098 23.1591 19.0194C22.8586 19.7665 22.4182 20.5325 21.8172 21.1411C21.2162 21.7507 20.4545 22.2218 19.6938 22.6741C19.0928 22.9878 18.3311 23.1452 17.7103 23.3016C17.3493 23.3414 16.9288 23.1841 16.5678 23.1651C21.0159 23.0466 24.0606 18.9019 23.4001 14.795C23.0788 13.5967 22.4381 12.5547 21.6566 11.5138C21.3362 11.0616 20.7144 10.7867 20.2542 10.3344C17.4693 8.5863 13.7838 8.93992 11.6803 11.2389C11.3853 11.541 11.1106 11.8625 10.8581 12.2011C11.9808 10.5506 13.7838 9.39214 15.9469 9.05746C16.7086 9.03753 17.4901 9.17599 18.2508 9.31345C21.6169 10.3344 24.1211 13.5967 23.5796 17.2125V17.2115Z" fill="#D7DF23"/>
</g>
<defs>
<clipPath id="clip0_319_2727">
<rect width="92.2353" height="31.875" fill="white"/>
</clipPath>
</defs>
</svg>
