<svg width="80" height="80" viewBox="0 0 80 80" fill="none" xmlns="http://www.w3.org/2000/svg">
<circle cx="40" cy="40" r="40" fill="#248DFA"/>
<path fill-rule="evenodd" clip-rule="evenodd" d="M25 28C25 26.4087 25.6321 24.8826 26.7574 23.7574C27.8826 22.6321 29.4087 22 31 22H51C52.5913 22 54.1174 22.6321 55.2426 23.7574C56.3679 24.8826 57 26.4087 57 28V52C57 53.5913 56.3679 55.1174 55.2426 56.2426C54.1174 57.3679 52.5913 58 51 58H43.98C44.6514 56.8384 45.0033 55.5197 45 54.178V43.302C44.9977 42.2702 44.7892 41.2493 44.3867 40.2993C43.9841 39.3493 43.3957 38.4893 42.656 37.77L34.656 29.948C32.04 27.388 28.06 26.974 25 28.702V28ZM47 30C47 29.4696 47.2107 28.9609 47.5858 28.5858C47.9609 28.2107 48.4696 28 49 28C49.5304 28 50.0411 28.2107 50.4162 28.5858C50.7913 28.9609 51.002 29.4696 51.002 30C51.002 30.5304 50.7913 31.0391 50.4162 31.4142C50.0411 31.7893 49.5324 32 49.002 32C48.4716 32 47.9609 31.7893 47.5858 31.4142C47.2107 31.0391 47 30.5304 47 30ZM41 28C40.4696 28 39.9609 28.2107 39.5858 28.5858C39.2107 28.9609 39 29.4696 39 30C39 30.5304 39.2107 31.0391 39.5858 31.4142C39.9609 31.7893 40.4696 32 41 32H41.002C41.5324 32 42.0411 31.7893 42.4162 31.4142C42.7913 31.0391 43.002 30.5304 43.002 30C43.002 29.4696 42.7913 28.9609 42.4162 28.5858C42.0411 28.2107 41.5324 28 41.002 28H41ZM47 40C47 39.4696 47.2107 38.9609 47.5858 38.5858C47.9609 38.2107 48.4696 38 49 38C49.5304 38 50.0411 38.2107 50.4162 38.5858C50.7913 38.9609 51.002 39.4696 51.002 40C51.002 40.5304 50.7913 41.0391 50.4162 41.4142C50.0411 41.7893 49.5324 42 49.002 42C48.4716 42 47.9609 41.7893 47.5858 41.4142C47.2107 41.0391 47 40.5304 47 40ZM49 48C48.4696 48 47.9609 48.2107 47.5858 48.5858C47.2107 48.9609 47 49.4696 47 50C47 50.5304 47.2107 51.0391 47.5858 51.4142C47.9609 51.7893 48.4696 52 49 52C49.5304 52 50.0411 51.7893 50.4162 51.4142C50.7913 51.0391 51.002 50.5304 51.002 50C51.002 49.4696 50.7913 48.9609 50.4162 48.5858C50.0411 48.2107 49.5304 48 49 48Z" fill="white"/>
<path fill-rule="evenodd" clip-rule="evenodd" d="M24.758 33.4139C25.8832 32.2891 27.409 31.6572 29 31.6572C30.591 31.6572 32.1168 32.2891 33.242 33.4139L39.242 39.4139C40.3673 40.5389 40.9997 42.0648 41 43.6559V51.9999C41 53.5912 40.3679 55.1174 39.2426 56.2426C38.1174 57.3678 36.5913 57.9999 35 57.9999H31V51.9999C31 51.4695 30.7893 50.9608 30.4142 50.5857C30.0391 50.2107 29.5304 49.9999 29 49.9999C28.4696 49.9999 27.9609 50.2107 27.5858 50.5857C27.2107 50.9608 27 51.4695 27 51.9999V57.9999H23C21.4087 57.9999 19.8826 57.3678 18.7574 56.2426C17.6321 55.1174 17 53.5912 17 51.9999V43.6559C17.0009 42.0655 17.6332 40.5404 18.758 39.4159L24.758 33.4139Z" fill="white"/>
</svg>
