<svg width="80" height="80" viewBox="0 0 80 80" fill="none" xmlns="http://www.w3.org/2000/svg">
<circle cx="40" cy="40" r="40" fill="#7834EB"/>
<path d="M33.2305 28.5C33.2305 26.7761 33.9153 25.1228 35.1343 23.9038C36.3533 22.6848 38.0066 22 39.7305 22C41.4544 22 43.1077 22.6848 44.3267 23.9038C45.5456 25.1228 46.2305 26.7761 46.2305 28.5C46.2305 30.2239 45.5456 31.8772 44.3267 33.0962C43.1077 34.3152 41.4544 35 39.7305 35C38.0066 35 36.3533 34.3152 35.1343 33.0962C33.9153 31.8772 33.2305 30.2239 33.2305 28.5ZM25.7305 26C24.1392 26 22.613 26.6321 21.4878 27.7574C20.3626 28.8826 19.7305 30.4087 19.7305 32C19.7305 33.5913 20.3626 35.1174 21.4878 36.2426C22.613 37.3679 24.1392 38 25.7305 38C27.3218 38 28.8479 37.3679 29.9731 36.2426C31.0983 35.1174 31.7305 33.5913 31.7305 32C31.7305 30.4087 31.0983 28.8826 29.9731 27.7574C28.8479 26.6321 27.3218 26 25.7305 26ZM53.7305 26C52.1392 26 50.613 26.6321 49.4878 27.7574C48.3626 28.8826 47.7305 30.4087 47.7305 32C47.7305 33.5913 48.3626 35.1174 49.4878 36.2426C50.613 37.3679 52.1392 38 53.7305 38C55.3218 38 56.8479 37.3679 57.9731 36.2426C59.0983 35.1174 59.7305 33.5913 59.7305 32C59.7305 30.4087 59.0983 28.8826 57.9731 27.7574C56.8479 26.6321 55.3218 26 53.7305 26ZM34.2305 38C33.3022 38 32.412 38.3687 31.7556 39.0251C31.0992 39.6815 30.7305 40.5717 30.7305 41.5V49C30.7305 51.3869 31.6787 53.6761 33.3665 55.364C35.0543 57.0518 37.3435 58 39.7305 58C42.1174 58 44.4066 57.0518 46.0944 55.364C47.7823 53.6761 48.7305 51.3869 48.7305 49V41.5C48.7305 40.5717 48.3617 39.6815 47.7053 39.0251C47.049 38.3687 46.1587 38 45.2305 38H34.2305ZM28.9505 39.956C28.8051 40.448 28.7318 40.9627 28.7305 41.5V49C28.7288 50.6375 29.0935 52.2547 29.7977 53.733C30.5019 55.2114 31.5279 56.5135 32.8005 57.544C31.6366 57.9299 30.4062 58.0739 29.1846 57.9672C27.9631 57.8605 26.7763 57.5053 25.697 56.9234C24.6177 56.3415 23.6687 55.5452 22.9082 54.5834C22.1477 53.6215 21.5917 52.5144 21.2745 51.33L19.8505 46.018C19.7313 45.574 19.7007 45.1109 19.7606 44.6551C19.8204 44.1993 19.9695 43.7597 20.1992 43.3615C20.4289 42.9633 20.7349 42.6143 21.0995 42.3343C21.4642 42.0544 21.8804 41.849 22.3245 41.73L28.9505 39.956ZM46.6605 57.542C47.9325 56.5119 48.9582 55.2104 49.6624 53.7328C50.3666 52.2552 50.7315 50.6388 50.7305 49.002V41.502C50.7291 40.9607 50.6558 40.4447 50.5105 39.954L57.1385 41.73C58.0348 41.9704 58.799 42.557 59.2629 43.3608C59.7268 44.1645 59.8526 45.1196 59.6125 46.016L58.1885 51.33C57.871 52.5145 57.3149 53.6216 56.5541 54.5834C55.7934 55.5451 54.8441 56.3413 53.7646 56.923C52.6851 57.5047 51.4981 57.8597 50.2765 57.9661C49.0548 58.0726 47.8243 57.9282 46.6605 57.542Z" fill="white"/>
</svg>
