<svg width="80" height="80" viewBox="0 0 80 80" fill="none" xmlns="http://www.w3.org/2000/svg">
<circle cx="40" cy="40" r="40" fill="#8AE700"/>
<path d="M33.5 28.5C33.5 26.7761 34.1848 25.1228 35.4038 23.9038C36.6228 22.6848 38.2761 22 40 22C41.7239 22 43.3772 22.6848 44.5962 23.9038C45.8152 25.1228 46.5 26.7761 46.5 28.5C46.5 30.2239 45.8152 31.8772 44.5962 33.0962C43.3772 34.3152 41.7239 35 40 35C38.2761 35 36.6228 34.3152 35.4038 33.0962C34.1848 31.8772 33.5 30.2239 33.5 28.5ZM26 26C24.4087 26 22.8826 26.6321 21.7574 27.7574C20.6321 28.8826 20 30.4087 20 32C20 33.5913 20.6321 35.1174 21.7574 36.2426C22.8826 37.3679 24.4087 38 26 38C27.5913 38 29.1174 37.3679 30.2426 36.2426C31.3679 35.1174 32 33.5913 32 32C32 30.4087 31.3679 28.8826 30.2426 27.7574C29.1174 26.6321 27.5913 26 26 26ZM54 26C52.4087 26 50.8826 26.6321 49.7574 27.7574C48.6321 28.8826 48 30.4087 48 32C48 33.5913 48.6321 35.1174 49.7574 36.2426C50.8826 37.3679 52.4087 38 54 38C55.5913 38 57.1174 37.3679 58.2426 36.2426C59.3679 35.1174 60 33.5913 60 32C60 30.4087 59.3679 28.8826 58.2426 27.7574C57.1174 26.6321 55.5913 26 54 26ZM34.5 38C33.5717 38 32.6815 38.3687 32.0251 39.0251C31.3687 39.6815 31 40.5717 31 41.5V49C31 51.3869 31.9482 53.6761 33.636 55.364C35.3239 57.0518 37.6131 58 40 58C42.3869 58 44.6761 57.0518 46.364 55.364C48.0518 53.6761 49 51.3869 49 49V41.5C49 40.5717 48.6313 39.6815 47.9749 39.0251C47.3185 38.3687 46.4283 38 45.5 38H34.5ZM29.22 39.956C29.0747 40.448 29.0013 40.9627 29 41.5V49C28.9984 50.6375 29.363 52.2547 30.0672 53.733C30.7715 55.2114 31.7974 56.5135 33.07 57.544C31.9061 57.9299 30.6757 58.0739 29.4542 57.9672C28.2327 57.8605 27.0458 57.5053 25.9665 56.9234C24.8872 56.3415 23.9382 55.5452 23.1777 54.5834C22.4172 53.6215 21.8613 52.5144 21.544 51.33L20.12 46.018C20.0008 45.574 19.9703 45.1109 20.0301 44.6551C20.0899 44.1993 20.239 43.7597 20.4687 43.3615C20.6985 42.9633 21.0044 42.6143 21.3691 42.3343C21.7337 42.0544 22.15 41.849 22.594 41.73L29.22 39.956ZM46.93 57.542C48.2021 56.5119 49.2277 55.2104 49.9319 53.7328C50.6361 52.2552 51.001 50.6388 51 49.002V41.502C50.9987 40.9607 50.9253 40.4447 50.78 39.954L57.408 41.73C58.3043 41.9704 59.0685 42.557 59.5324 43.3608C59.9964 44.1645 60.1221 45.1196 59.882 46.016L58.458 51.33C58.1405 52.5145 57.5844 53.6216 56.8237 54.5834C56.0629 55.5451 55.1137 56.3413 54.0342 56.923C52.9547 57.5047 51.7676 57.8597 50.546 57.9661C49.3244 58.0726 48.0939 57.9282 46.93 57.542Z" fill="white"/>
</svg>
