<svg width="97" height="30" viewBox="0 0 97 30" fill="none" xmlns="http://www.w3.org/2000/svg">
<g clip-path="url(#clip0_319_2686)">
<path d="M27.7892 21.2611C27.6372 20.8955 27.4946 20.5111 27.3425 20.183L26.6392 18.6174L26.6107 18.5892C24.5198 14.0892 22.2864 9.51423 19.9199 5.01423L19.8248 4.82673C19.5872 4.38611 19.3496 3.89861 19.1025 3.44861C18.7984 2.91423 18.5038 2.34236 18.0191 1.79861C17.5466 1.22967 16.952 0.771282 16.2781 0.456532C15.6043 0.141782 14.868 -0.0214844 14.1224 -0.0214844C13.3768 -0.0214844 12.6406 0.141782 11.9667 0.456532C11.2928 0.771282 10.6982 1.22967 10.2258 1.79861C9.77907 2.34236 9.44643 2.91423 9.1423 3.44861C8.9047 3.93611 8.6671 4.41423 8.42 4.85486L8.32496 5.04236C5.99647 9.54236 3.725 14.1174 1.63411 18.6174L1.57709 18.6736C1.368 19.1611 1.1209 19.6674 0.883296 20.2111C0.731231 20.5392 0.579166 20.8955 0.427102 21.2892C0.0165583 22.3203 -0.114541 23.4391 0.0467238 24.5353C0.207989 25.6316 0.656052 26.6674 1.34675 27.5409C2.03746 28.4143 2.94696 29.0951 3.98563 29.5162C5.02429 29.9373 6.15628 30.0842 7.27001 29.9424C8.33776 29.8037 9.36591 29.4529 10.2923 28.9111C11.5278 28.2267 12.7158 27.233 14.0464 25.7986C15.377 27.233 16.5935 28.2267 17.8005 28.9205C18.9612 29.5925 20.2757 29.9634 21.6211 29.9986C23.1791 30.005 24.6869 29.4551 25.8661 28.4505C27.0452 27.4459 27.8161 26.0544 28.0363 24.533C28.2909 23.4396 28.2048 22.296 27.7892 21.2517V21.2611ZM14.1414 22.8174C12.5067 20.7549 11.4423 18.8611 11.0811 17.2392C10.9315 16.6382 10.8992 16.0146 10.9861 15.4017C11.0526 14.9236 11.2332 14.5017 11.4803 14.1455C12.0505 13.3299 13.0485 12.8236 14.1414 12.8236C14.6605 12.808 15.1753 12.9197 15.6398 13.1488C16.1043 13.3779 16.5038 13.7171 16.8026 14.1361C17.0497 14.5111 17.2302 14.9236 17.2873 15.4017C17.3823 15.9455 17.3443 16.5736 17.1922 17.2392C16.8311 18.833 15.7666 20.7455 14.1414 22.8174ZM26.2496 24.2049C26.1416 24.9773 25.8303 25.7084 25.3467 26.3252C24.8631 26.942 24.2241 27.4231 23.4934 27.7205C22.7711 28.0205 21.9728 28.1049 21.1934 28.0205C20.4331 27.9267 19.6728 27.683 18.8934 27.233C17.5995 26.4441 16.4359 25.4639 15.4435 24.3267C17.4393 21.8892 18.6463 19.6674 19.1025 17.6892C19.3211 16.7517 19.3496 15.908 19.2546 15.1299C19.1359 14.3923 18.8571 13.6888 18.4373 13.0674C17.9579 12.3935 17.318 11.8462 16.5739 11.4735C15.8298 11.1008 15.0043 10.9141 14.1699 10.9299C12.4117 10.9299 10.8435 11.7361 9.89312 13.058C9.46529 13.6778 9.18879 14.387 9.08528 15.1299C8.96173 15.9174 8.99024 16.7892 9.23734 17.6892C9.69354 19.6674 10.9291 21.9174 12.8964 24.3455C11.9208 25.5044 10.7545 26.4932 9.44643 27.2705C8.6576 27.7205 7.90678 27.9549 7.14646 28.0486C5.96404 28.198 4.76964 27.881 3.82286 27.1665C2.87608 26.452 2.25345 25.3978 2.09031 24.233C1.99527 23.483 2.0618 22.733 2.36593 21.8892C2.46097 21.5892 2.60353 21.2892 2.75559 20.933C2.96468 20.4455 3.21178 19.9392 3.44939 19.433L3.4874 19.3674C5.54027 14.8955 7.78323 10.3299 10.1117 5.85798L10.2068 5.67048C10.4444 5.22048 10.682 4.74236 10.9291 4.29236C11.1762 3.81423 11.4423 3.35486 11.7844 2.97986C12.0806 2.63112 12.4506 2.35067 12.8685 2.15825C13.2864 1.96582 13.742 1.86609 14.2032 1.86609C14.6644 1.86609 15.12 1.96582 15.5379 2.15825C15.9558 2.35067 16.3258 2.63112 16.622 2.97986C16.9546 3.35486 17.2302 3.81423 17.4773 4.29236C17.7149 4.74236 17.9525 5.22986 18.1997 5.67048L18.2947 5.85798C20.6137 10.3299 22.8566 14.8955 24.9475 19.3674L24.976 19.3955C25.2231 19.883 25.4322 20.4267 25.6698 20.8955C25.8219 21.2611 25.974 21.5517 26.069 21.8611C26.2496 22.7049 26.3446 23.4549 26.2496 24.2049ZM39.4792 22.6111C38.763 22.6214 38.0537 22.4726 37.4038 22.1756C36.7539 21.8786 36.1802 21.4411 35.7251 20.8955C34.7025 19.7329 34.1598 18.234 34.2045 16.6955C34.1888 15.1235 34.749 13.5988 35.7821 12.4017C36.26 11.8492 36.8548 11.4067 37.5248 11.1054C38.1947 10.8041 38.9235 10.6514 39.6598 10.658C40.3525 10.6393 41.0388 10.7947 41.6539 11.1095C42.2691 11.4244 42.7929 11.8884 43.1763 12.458L43.2713 10.9861H46.0465V22.3111H43.2618L43.1668 20.6611C42.7715 21.2692 42.2253 21.7676 41.5799 22.1089C40.9345 22.4502 40.2114 22.6231 39.4792 22.6111ZM40.2015 19.9111C40.7527 19.9111 41.2374 19.7611 41.6936 19.4892C42.1118 19.1892 42.454 18.7955 42.7201 18.3174C42.9577 17.8392 43.0812 17.2674 43.0812 16.6299C43.1183 16.0762 43.009 15.5225 42.7641 15.0229C42.5192 14.5234 42.1471 14.095 41.6841 13.7799C41.2393 13.5064 40.7256 13.3615 40.2015 13.3615C39.6774 13.3615 39.1637 13.5064 38.7189 13.7799C38.3007 14.0799 37.9585 14.4736 37.6924 14.9517C37.4411 15.479 37.3175 16.0567 37.3313 16.6392C37.2942 17.1929 37.4035 17.7466 37.6484 18.2462C37.8933 18.7457 38.2654 19.174 38.7284 19.4892C39.1751 19.7611 39.6598 19.9111 40.2015 19.9111ZM50.7985 7.92986C50.7985 8.25798 50.7415 8.55798 50.5894 8.80173C50.4373 9.03611 50.2283 9.25173 49.9526 9.40173C49.677 9.55173 49.3824 9.60798 49.0783 9.60798C48.7741 9.60798 48.47 9.55173 48.1944 9.40173C47.9337 9.25858 47.7145 9.05204 47.5576 8.80173C47.4104 8.53467 47.3383 8.23366 47.3485 7.92986C47.3485 7.59236 47.4151 7.29236 47.5576 7.05798C47.7097 6.77673 47.9283 6.60798 48.1944 6.45798C48.47 6.30798 48.7646 6.24236 49.0783 6.24236C49.3808 6.23548 49.6799 6.30616 49.9465 6.44748C50.213 6.5888 50.4378 6.79592 50.5989 7.04861C50.7372 7.32193 50.8057 7.62445 50.7985 7.92986ZM47.5671 22.2736V10.9674H50.5894V22.2924H47.5576L47.5671 22.2736ZM58.6678 13.9299V13.9674C58.5253 13.9017 58.3352 13.8736 58.1926 13.8455C58.0026 13.808 57.8505 13.808 57.6699 13.808C56.8241 13.808 56.1873 14.0517 55.7691 14.558C55.3129 15.0736 55.1038 15.7955 55.1038 16.7236V22.283H52.072V10.958H54.8567L54.9518 12.6736C55.2559 12.0736 55.617 11.6236 56.1303 11.2861C56.6408 10.9582 57.2417 10.7944 57.8505 10.8174C58.0691 10.8174 58.2782 10.8361 58.4588 10.8736C58.5538 10.9017 58.6108 10.9017 58.6678 10.9299V13.9299ZM59.8844 22.2736V6.31736H62.9067V12.4111C63.3343 11.8674 63.819 11.4455 64.4273 11.1174C65.3902 10.6516 66.4842 10.5195 67.5326 10.7423C68.581 10.9652 69.5227 11.5299 70.2057 12.3455C71.2306 13.5104 71.7734 15.0131 71.7264 16.5549C71.742 18.1268 71.1818 19.6516 70.1487 20.8486C69.6709 21.4011 69.076 21.8436 68.4061 22.1449C67.7361 22.4462 67.0073 22.5989 66.2711 22.5924C65.5783 22.6111 64.8921 22.4557 64.2769 22.1408C63.6618 21.8259 63.1379 21.3619 62.7546 20.7924L62.6595 22.2642L59.8844 22.2924V22.2736ZM65.7293 19.9111C66.2711 19.9111 66.7558 19.7611 67.212 19.4892C67.6302 19.1892 67.9723 18.7955 68.2384 18.3174C68.4855 17.8392 68.5996 17.2674 68.5996 16.6299C68.5996 16.0017 68.4855 15.4299 68.2384 14.9517C67.9888 14.4907 67.6382 14.0904 67.212 13.7799C66.7671 13.5064 66.2535 13.3615 65.7293 13.3615C65.2052 13.3615 64.6916 13.5064 64.2467 13.7799C63.819 14.0799 63.4864 14.4736 63.2108 14.9517C62.9594 15.479 62.8358 16.0567 62.8496 16.6392C62.8126 17.1929 62.9218 17.7466 63.1667 18.2462C63.4116 18.7457 63.7837 19.174 64.2467 19.4892C64.6934 19.7611 65.1781 19.9111 65.7293 19.9111ZM72.8669 22.283V10.958H75.6516L75.7466 12.4299C76.0965 11.8657 76.5929 11.4039 77.1844 11.0924C77.7759 10.7809 78.4411 10.6309 79.111 10.658C79.8771 10.6449 80.6302 10.855 81.2759 11.2618C81.9216 11.6687 82.4315 12.2543 82.7416 12.9455C83.0742 13.658 83.2548 14.5392 83.2548 15.5236V22.3111H80.223V15.9174C80.223 15.1299 80.0424 14.5111 79.6813 14.0517C79.3201 13.6017 78.8259 13.358 78.1986 13.358C77.7424 13.358 77.3433 13.4517 76.9916 13.658C76.659 13.8736 76.3834 14.1455 76.1743 14.5299C75.9629 14.9184 75.858 15.3547 75.8702 15.7955V22.283H72.8669ZM84.7659 22.283V6.30798H87.7977V12.4017C88.2084 11.8549 88.7426 11.4101 89.3579 11.1025C89.9733 10.795 90.6529 10.6331 91.3427 10.6299C92.0589 10.6195 92.7682 10.7684 93.4181 11.0654C94.068 11.3624 94.6418 11.7999 95.0968 12.3455C96.1143 13.5103 96.6534 15.0085 96.608 16.5455C96.6245 18.1176 96.0641 19.6426 95.0303 20.8392C94.5524 21.3918 93.9576 21.8343 93.2876 22.1355C92.6177 22.4368 91.8889 22.5895 91.1526 22.583C90.4599 22.6017 89.7736 22.4463 89.1585 22.1314C88.5433 21.8165 88.0195 21.3525 87.6362 20.783L87.5506 22.2549L84.7659 22.283ZM90.6394 19.9111C91.1907 19.9111 91.6754 19.7611 92.1221 19.4892C92.5497 19.1892 92.8824 18.7955 93.158 18.3174C93.3956 17.8392 93.5191 17.2674 93.5191 16.6299C93.5562 16.0762 93.4469 15.5225 93.202 15.0229C92.9572 14.5234 92.585 14.095 92.1221 13.7799C91.6772 13.5064 91.1636 13.3615 90.6394 13.3615C90.1153 13.3615 89.6016 13.5064 89.1568 13.7799C88.7386 14.0799 88.3965 14.4736 88.1304 14.9517C87.8651 15.4743 87.7407 16.0555 87.7692 16.6392C87.7322 17.1929 87.8414 17.7466 88.0863 18.2462C88.3312 18.7457 88.7033 19.174 89.1663 19.4892C89.613 19.7611 90.0692 19.9111 90.6394 19.9111Z" fill="#FF385C"/>
</g>
<defs>
<clipPath id="clip0_319_2686">
<rect width="96.9412" height="30" fill="white"/>
</clipPath>
</defs>
</svg>
