<svg width="75" height="80" viewBox="0 0 75 80" fill="none" xmlns="http://www.w3.org/2000/svg">
<ellipse cx="37.3869" cy="40" rx="37.3869" ry="40" fill="#FF6525"/>
<path fill-rule="evenodd" clip-rule="evenodd" d="M37.0795 22.1424C35.1535 22.2964 33.3516 22.7784 31.8935 23.5124C30.8256 24.0504 29.7715 24.8124 29.0855 25.8324C28.8855 25.8364 28.6829 25.8464 28.4775 25.8624C26.8735 25.9904 25.3475 26.4324 24.1715 27.1384C23.1115 27.7724 21.7515 29.0164 21.8975 30.8624C22.0435 32.7084 23.5835 33.7224 24.7295 34.1824C26.0015 34.6924 27.5775 34.8884 29.1835 34.7624C29.9435 34.7024 30.7075 34.5664 31.4295 34.3604L38.1775 39.4064L44.9755 42.4424C45.3995 43.4124 45.4795 43.7284 45.7815 44.9284C45.9296 45.5184 46.1335 46.3224 46.4575 47.5224C46.9455 49.3364 47.1855 51.4364 47.2975 53.1324C47.354 54.0127 47.3841 54.8944 47.3875 55.7764V55.9704L47.3535 57.9684L51.3535 58.0324L51.3855 56.0324V55.7804L51.3815 55.1204C51.3715 54.5644 51.3455 53.7804 51.2855 52.8684C51.1655 51.0644 50.9056 48.6644 50.3155 46.4784C50.1038 45.6916 49.8991 44.9029 49.7015 44.1124C49.3455 42.6984 49.2075 42.1604 48.6255 40.8124L50.1295 36.1124C53.1775 35.4864 55.9016 33.0584 55.6356 29.7224C55.3456 26.0424 51.6355 24.0264 48.2295 24.2964C47.3895 24.3644 46.5835 24.5564 45.8415 24.8604C45.1375 23.9624 44.1155 23.3404 43.1675 22.9524C41.4675 22.2524 39.3115 21.9664 37.0795 22.1424ZM46.0155 35.8504C45.433 35.6553 44.8778 35.3865 44.3635 35.0504C44.1517 35.8668 43.77 36.6294 43.2435 37.2884L45.2655 38.1924L46.0155 35.8504ZM40.5595 33.0064C39.3701 33.3011 38.1508 33.4581 36.9255 33.4744L39.4255 35.3424C39.7622 35.1798 40.0465 34.9261 40.2463 34.61C40.446 34.294 40.5531 33.9283 40.5555 33.5544L40.5595 33.0064Z" fill="white"/>
<path d="M26.3867 45C26.3867 45.5304 26.176 46.0391 25.8009 46.4142C25.4259 46.7893 24.9172 47 24.3867 47C23.8563 47 23.3476 46.7893 22.9725 46.4142C22.5974 46.0391 22.3867 45.5304 22.3867 45C22.3867 44.4696 22.5974 43.9609 22.9725 43.5858C23.3476 43.2107 23.8563 43 24.3867 43C24.9172 43 25.4259 43.2107 25.8009 43.5858C26.176 43.9609 26.3867 44.4696 26.3867 45ZM31.3867 41C31.9172 41 32.4259 40.7893 32.8009 40.4142C33.176 40.0391 33.3867 39.5304 33.3867 39C33.3867 38.4696 33.176 37.9609 32.8009 37.5858C32.4259 37.2107 31.9172 37 31.3867 37C30.8563 37 30.3476 37.2107 29.9725 37.5858C29.5974 37.9609 29.3867 38.4696 29.3867 39C29.3867 39.5304 29.5974 40.0391 29.9725 40.4142C30.3476 40.7893 30.8563 41 31.3867 41ZM41.3867 45C41.3867 45.5304 41.5974 46.0391 41.9725 46.4142C42.3476 46.7893 42.8563 47 43.3867 47C43.9172 47 44.4259 46.7893 44.8009 46.4142C45.176 46.0391 45.3867 45.5304 45.3867 45C45.3867 44.4696 45.176 43.9609 44.8009 43.5858C44.4259 43.2107 43.9172 43 43.3867 43C42.8563 43 42.3476 43.2107 41.9725 43.5858C41.5974 43.9609 41.3867 44.4696 41.3867 45ZM26.3867 50C26.3867 49.4696 26.176 48.9609 25.8009 48.5858C25.4259 48.2107 24.9172 48 24.3867 48C23.8563 48 23.3476 48.2107 22.9725 48.5858C22.5974 48.9609 22.3867 49.4696 22.3867 50V54C22.3867 55.0609 22.8081 56.0783 23.5583 56.8284C24.3084 57.5786 25.3259 58 26.3867 58H30.3867C30.9172 58 31.4259 57.7893 31.8009 57.4142C32.176 57.0391 32.3867 56.5304 32.3867 56C32.3867 55.4696 32.176 54.9609 31.8009 54.5858C31.4259 54.2107 30.9172 54 30.3867 54H26.3867V50ZM31.3867 42C31.9172 42 32.4259 42.2107 32.8009 42.5858C33.176 42.9609 33.3867 43.4696 33.3867 44V48H37.3867C37.9172 48 38.4259 48.2107 38.8009 48.5858C39.176 48.9609 39.3867 49.4696 39.3867 50C39.3867 50.5304 39.176 51.0391 38.8009 51.4142C38.4259 51.7893 37.9172 52 37.3867 52H33.3867C32.3259 52 31.3084 51.5786 30.5583 50.8284C29.8081 50.0783 29.3867 49.0609 29.3867 48V44C29.3867 43.4696 29.5974 42.9609 29.9725 42.5858C30.3476 42.2107 30.8563 42 31.3867 42ZM41.3867 50C41.3867 49.4696 41.5974 48.9609 41.9725 48.5858C42.3476 48.2107 42.8563 48 43.3867 48C43.9172 48 44.4259 48.2107 44.8009 48.5858C45.176 48.9609 45.3867 49.4696 45.3867 50V54C45.3867 55.0609 44.9653 56.0783 44.2151 56.8284C43.465 57.5786 42.4476 58 41.3867 58H37.3867C36.8563 58 36.3476 57.7893 35.9725 57.4142C35.5974 57.0391 35.3867 56.5304 35.3867 56C35.3867 55.4696 35.5974 54.9609 35.9725 54.5858C36.3476 54.2107 36.8563 54 37.3867 54H41.3867V50Z" fill="white"/>
</svg>
