<svg width="32" height="32" viewBox="0 0 32 32" fill="none" xmlns="http://www.w3.org/2000/svg">
<path d="M6.66665 1.33301H2.66665C2.31302 1.33301 1.97388 1.47348 1.72384 1.72353C1.47379 1.97358 1.33331 2.31272 1.33331 2.66634V29.333C1.33331 29.6866 1.47379 30.0258 1.72384 30.2758C1.97388 30.5259 2.31302 30.6663 2.66665 30.6663H6.66665V1.33301Z" fill="#F41266"/>
<path d="M9.33331 30.6663H22.6666V1.33301H9.33331V30.6663ZM16 25.333C15.6464 25.333 15.3072 25.1925 15.0572 24.9425C14.8071 24.6924 14.6666 24.3533 14.6666 23.9997C14.6666 23.6461 14.8071 23.3069 15.0572 23.0569C15.3072 22.8068 15.6464 22.6663 16 22.6663C16.3536 22.6663 16.6927 22.8068 16.9428 23.0569C17.1928 23.3069 17.3333 23.6461 17.3333 23.9997C17.3333 24.3533 17.1928 24.6924 16.9428 24.9425C16.6927 25.1925 16.3536 25.333 16 25.333ZM16 6.66634C16.3536 6.66634 16.6927 6.80682 16.9428 7.05686C17.1928 7.30691 17.3333 7.64605 17.3333 7.99967C17.3333 8.3533 17.1928 8.69244 16.9428 8.94248C16.6927 9.19253 16.3536 9.33301 16 9.33301C15.6464 9.33301 15.3072 9.19253 15.0572 8.94248C14.8071 8.69244 14.6666 8.3533 14.6666 7.99967C14.6666 7.64605 14.8071 7.30691 15.0572 7.05686C15.3072 6.80682 15.6464 6.66634 16 6.66634ZM16 14.6663C16.3536 14.6663 16.6927 14.8068 16.9428 15.0569C17.1928 15.3069 17.3333 15.6461 17.3333 15.9997C17.3333 16.3533 17.1928 16.6924 16.9428 16.9425C16.6927 17.1925 16.3536 17.333 16 17.333C15.6464 17.333 15.3072 17.1925 15.0572 16.9425C14.8071 16.6924 14.6666 16.3533 14.6666 15.9997C14.6666 15.6461 14.8071 15.3069 15.0572 15.0569C15.3072 14.8068 15.6464 14.6663 16 14.6663Z" fill="#8AE700"/>
<path d="M29.3333 1.33301H25.3333V30.6663H29.3333C29.6869 30.6663 30.0261 30.5259 30.2761 30.2758C30.5262 30.0258 30.6666 29.6866 30.6666 29.333V2.66634C30.6666 2.31272 30.5262 1.97358 30.2761 1.72353C30.0261 1.47348 29.6869 1.33301 29.3333 1.33301Z" fill="#FD5D0F"/>
</svg>
