<svg width="32" height="30" viewBox="0 0 32 30" fill="none" xmlns="http://www.w3.org/2000/svg">
<path d="M31.4667 0.266668C31.2 1.01328e-06 30.6667 0 30.2667 0L22.6667 2.26667V29.0667L31.0667 26.6667C31.6 26.5333 32 26 32 25.3333V1.33333C32 0.933333 31.8667 0.533334 31.4667 0.266668Z" fill="#F41266"/>
<path d="M20 2.2666L12 0.266602V27.0666L20 29.0666V2.2666Z" fill="#FD5D0F"/>
<path d="M9.33333 0.266602L0.933334 2.6666C0.400001 2.93327 0 3.4666 0 3.99993V27.9999C0 28.3999 0.133333 28.7999 0.533333 29.0666C0.799999 29.1999 1.06667 29.3333 1.33333 29.3333H1.73333L9.33333 27.0666V0.266602Z" fill="#8AE700"/>
</svg>
