<svg width="32" height="32" viewBox="0 0 32 32" fill="none" xmlns="http://www.w3.org/2000/svg">
<path d="M30.6666 7.99967V2.66634C30.6666 2.31272 30.5261 1.97358 30.2761 1.72353C30.026 1.47348 29.6869 1.33301 29.3333 1.33301H2.66659C2.31296 1.33301 1.97382 1.47348 1.72378 1.72353C1.47373 1.97358 1.33325 2.31272 1.33325 2.66634V7.99967H30.6666Z" fill="#FD5D0F"/>
<path d="M1.33325 10.666V29.3327C1.33325 29.6863 1.47373 30.0254 1.72378 30.2755C1.97382 30.5255 2.31296 30.666 2.66659 30.666H9.33325V10.666H1.33325Z" fill="#F41266"/>
<path d="M12 30.666H29.3333C29.687 30.666 30.0261 30.5255 30.2761 30.2755C30.5262 30.0254 30.6667 29.6863 30.6667 29.3327V10.666H12V30.666Z" fill="#8AE700"/>
</svg>
