<svg width="80" height="30" viewBox="0 0 80 30" fill="none" xmlns="http://www.w3.org/2000/svg">
<g clip-path="url(#clip0_319_2739)">
<path d="M65.0013 28.7253C72.5104 28.7253 78.6203 22.5408 78.6203 14.9403C78.6203 7.33527 72.5104 1.15527 65.0013 1.15527C57.4907 1.15527 51.3823 7.33527 51.3823 14.9403C51.3823 22.5408 57.4907 28.7253 65.0013 28.7253ZM65.0013 10.0248C67.6773 10.0248 69.8567 12.2298 69.8567 14.9388C69.8567 17.6478 67.6758 19.8498 64.9998 19.8498C62.3222 19.8498 60.1459 17.6478 60.1459 14.9373C60.1459 12.2253 62.3237 10.0218 64.9998 10.0218L65.0013 10.0248ZM13.619 28.7253C21.1281 28.7253 27.238 22.5408 27.238 14.9403C27.238 7.33527 21.1281 1.15527 13.619 1.15527C6.1114 1.15527 0 7.33527 0 14.9403C0 22.5408 6.1114 28.7253 13.619 28.7253ZM13.619 10.0248C16.2966 10.0248 18.4744 12.2298 18.4744 14.9388C18.4744 17.6478 16.2966 19.8498 13.619 19.8498C10.9429 19.8498 8.76658 17.6478 8.76658 14.9373C8.76658 12.2253 10.9444 10.0218 13.619 10.0218V10.0248ZM39.3027 9.71427L35.1215 1.33527H25.3316L34.4756 19.6653V28.2948H44.1312V19.6653L53.2752 1.33527H43.4809L39.3042 9.71427H39.3027Z" fill="#EE2E24"/>
</g>
<defs>
<clipPath id="clip0_319_2739">
<rect width="79.0588" height="30" fill="white"/>
</clipPath>
</defs>
</svg>
