<svg width="75" height="80" viewBox="0 0 75 80" fill="none" xmlns="http://www.w3.org/2000/svg">
<ellipse cx="37.3869" cy="40" rx="37.3869" ry="40" fill="#FF6525"/>
<path fill-rule="evenodd" clip-rule="evenodd" d="M25.3867 28C25.3867 26.4087 26.0189 24.8826 27.1441 23.7574C28.2693 22.6321 29.7954 22 31.3867 22H51.3867C52.978 22 54.5041 22.6321 55.6294 23.7574C56.7546 24.8826 57.3867 26.4087 57.3867 28V52C57.3867 53.5913 56.7546 55.1174 55.6294 56.2426C54.5041 57.3679 52.978 58 51.3867 58H44.3667C45.0381 56.8384 45.39 55.5197 45.3867 54.178V43.302C45.3845 42.2702 45.1759 41.2493 44.7734 40.2993C44.3708 39.3493 43.7824 38.4893 43.0427 37.77L35.0427 29.948C32.4267 27.388 28.4467 26.974 25.3867 28.702V28ZM47.3867 30C47.3867 29.4696 47.5974 28.9609 47.9725 28.5858C48.3476 28.2107 48.8563 28 49.3867 28C49.9172 28 50.4279 28.2107 50.8029 28.5858C51.178 28.9609 51.3887 29.4696 51.3887 30C51.3887 30.5304 51.178 31.0391 50.8029 31.4142C50.4279 31.7893 49.9192 32 49.3887 32C48.8583 32 48.3476 31.7893 47.9725 31.4142C47.5974 31.0391 47.3867 30.5304 47.3867 30ZM41.3867 28C40.8563 28 40.3476 28.2107 39.9725 28.5858C39.5974 28.9609 39.3867 29.4696 39.3867 30C39.3867 30.5304 39.5974 31.0391 39.9725 31.4142C40.3476 31.7893 40.8563 32 41.3867 32H41.3887C41.9192 32 42.4279 31.7893 42.8029 31.4142C43.178 31.0391 43.3887 30.5304 43.3887 30C43.3887 29.4696 43.178 28.9609 42.8029 28.5858C42.4279 28.2107 41.9192 28 41.3887 28H41.3867ZM47.3867 40C47.3867 39.4696 47.5974 38.9609 47.9725 38.5858C48.3476 38.2107 48.8563 38 49.3867 38C49.9172 38 50.4279 38.2107 50.8029 38.5858C51.178 38.9609 51.3887 39.4696 51.3887 40C51.3887 40.5304 51.178 41.0391 50.8029 41.4142C50.4279 41.7893 49.9192 42 49.3887 42C48.8583 42 48.3476 41.7893 47.9725 41.4142C47.5974 41.0391 47.3867 40.5304 47.3867 40ZM49.3867 48C48.8563 48 48.3476 48.2107 47.9725 48.5858C47.5974 48.9609 47.3867 49.4696 47.3867 50C47.3867 50.5304 47.5974 51.0391 47.9725 51.4142C48.3476 51.7893 48.8563 52 49.3867 52C49.9172 52 50.4279 51.7893 50.8029 51.4142C51.178 51.0391 51.3887 50.5304 51.3887 50C51.3887 49.4696 51.178 48.9609 50.8029 48.5858C50.4279 48.2107 49.9172 48 49.3867 48Z" fill="white"/>
<path fill-rule="evenodd" clip-rule="evenodd" d="M25.1447 33.4139C26.2699 32.2891 27.7957 31.6572 29.3867 31.6572C30.9777 31.6572 32.5036 32.2891 33.6287 33.4139L39.6287 39.4139C40.754 40.5389 41.3864 42.0648 41.3867 43.6559V51.9999C41.3867 53.5912 40.7546 55.1174 39.6294 56.2426C38.5041 57.3678 36.978 57.9999 35.3867 57.9999H31.3867V51.9999C31.3867 51.4695 31.176 50.9608 30.8009 50.5857C30.4259 50.2107 29.9172 49.9999 29.3867 49.9999C28.8563 49.9999 28.3476 50.2107 27.9725 50.5857C27.5974 50.9608 27.3867 51.4695 27.3867 51.9999V57.9999H23.3867C21.7954 57.9999 20.2693 57.3678 19.1441 56.2426C18.0189 55.1174 17.3867 53.5912 17.3867 51.9999V43.6559C17.3876 42.0655 18.0199 40.5404 19.1447 39.4159L25.1447 33.4139Z" fill="white"/>
</svg>
