<svg width="80" height="80" viewBox="0 0 80 80" fill="none" xmlns="http://www.w3.org/2000/svg">
<circle cx="40" cy="40" r="40" fill="#8AE700"/>
<path d="M46.2683 46H48.2683C50.39 46 52.4248 46.8429 53.9251 48.3431C55.4254 49.8434 56.2683 51.8783 56.2683 54C56.2683 55.0609 55.8468 56.0783 55.0967 56.8284C54.3466 57.5786 53.3291 58 52.2683 58H32.5323C31.8415 58 31.1626 57.8211 30.5615 57.4808C29.9604 57.1405 29.4577 56.6503 29.1023 56.058L24.7143 48.744C24.4289 48.2687 24.2749 47.7262 24.2678 47.1719C24.2608 46.6175 24.401 46.0713 24.6741 45.5889C24.9472 45.1065 25.3435 44.7052 25.8225 44.426C26.3014 44.1469 26.8459 43.9999 27.4003 44H28.2683C28.8893 44 29.5017 44.1446 30.0571 44.4223C30.6125 44.7 31.0957 45.1032 31.4683 45.6L36.2683 52V34C36.2683 32.9391 36.6897 31.9217 37.4398 31.1716C38.19 30.4214 39.2074 30 40.2683 30C41.3291 30 42.3466 30.4214 43.0967 31.1716C43.8468 31.9217 44.2683 32.9391 44.2683 34V44C44.2683 44.5304 44.479 45.0391 44.8541 45.4142C45.2291 45.7893 45.7378 46 46.2683 46Z" fill="white" stroke="white" stroke-width="2" stroke-linecap="round" stroke-linejoin="round"/>
<path d="M40.2686 24V22M52.2686 36H54.2686M26.2686 36H28.2686M30.9546 26.686L29.5406 25.272M49.5826 26.686L50.9966 25.272" stroke="white" stroke-width="2" stroke-linecap="round" stroke-linejoin="round"/>
</svg>
