<svg width="309" height="313" viewBox="0 0 309 313" fill="none" xmlns="http://www.w3.org/2000/svg">
<g opacity="0.5">
<path d="M27.0451 279.941C22.4186 275.878 29.4171 267.482 31.0343 262.408C44.6756 219.604 14.2668 197.274 -10.9518 168.507C-30.8227 145.841 -38.8093 117.802 -35.1309 88.6529C-34.4211 83.0286 -32.9094 74.1938 -24.4951 75.4408C-15.5312 76.7692 -20.4587 87.2142 -20.9422 92.5273C-22.3277 107.748 -19.8301 126.513 -13.1608 140.528C-2.9316 162.024 18.9193 175.742 32.3343 195.433C47.6724 217.947 53.4873 243.827 42.6398 269.229C40.603 273.999 34.3836 286.387 27.0451 279.941Z" fill="#FED917"/>
<path d="M260.86 285.248C260.413 285.004 256.465 289.567 252.089 290.028C238.929 291.416 240.421 281.777 238.389 274.132C226.867 230.788 173.354 253.151 162.435 284.032C159.518 292.282 159.978 298.055 159.157 306.103C158.485 312.691 148.777 315.43 144.225 309.836C139.525 304.059 143.178 285.915 145.25 278.974C158.334 235.124 232.614 209.834 253.996 262.79C255.267 265.937 256.203 271.664 257.53 274.005C258.455 275.636 261.92 277.51 261.658 280.417C272.134 264.247 281.212 245.758 293.245 230.54C296.368 226.591 300.616 220.383 306.662 224.878C310.443 227.689 308.846 230.798 307.358 234.244C300.019 251.236 280.748 269.631 272.734 287.142C270.334 290.285 265.626 291.184 262.498 288.346C261.47 287.414 261.022 285.336 260.86 285.248Z" fill="#FED917"/>
<path d="M264.203 31.1532C265.03 31.7268 277.782 28.1548 280.341 28.2546C284.642 28.4223 287.642 32.8125 284.788 36.1473C281.988 39.4196 262.353 40.93 261.552 41.7546C261.335 41.9774 261.662 43.2317 261.805 43.6902C264.579 52.5539 272.733 63.4208 274.964 72.1739C276.153 76.8399 272.291 81.0152 267.427 78.5438C263.123 76.3571 254.661 50.4238 252.813 50.4308C251.095 50.4372 239.362 75.08 236.342 77.8233C232.43 82.9196 224.786 79.4726 226.843 73.519L242.999 45.8391C234.023 46.2281 222.157 51.2291 213.615 51.4112C206.534 51.562 204.738 44.5515 210.804 42.09C214.724 40.1886 244.64 36.3249 245.616 34.9673C245.925 34.5386 245.56 33.6028 245.41 33.0789C242.401 22.5896 232.994 10.0522 229.918 -0.515389C228.001 -7.10365 233.668 -10.4688 239.006 -5.89001C241.959 -2.70852 252.47 26.3448 254.402 26.3324C255.98 26.3219 262.493 5.66898 270.261 13.3727C275.13 18.2025 263.088 30.3802 264.203 31.1532Z" fill="#FED917"/>
<path d="M264.026 97.8181C295.594 95.232 297.165 138.483 266.504 138.744C237.842 138.989 235.555 100.15 264.026 97.8181ZM263.24 120.057C265.45 122.64 271.432 120.315 269.661 116.893C267.817 113.33 259.815 116.052 263.24 120.057Z" fill="#FED917"/>
<path d="M173.773 144.028C192.258 145.769 217.609 141.904 235.258 144.9C245.172 146.583 244.658 158.487 234.773 159.666C216.198 158.309 193.4 161.156 175.288 159.135C163.48 157.817 163.866 145.418 173.773 144.028Z" fill="#FED917"/>
<path d="M162.243 175.017C167.506 174.023 168.077 176.85 171.421 178.446C179.054 182.09 203.301 193.668 210.194 195.136C212.211 195.565 213.454 194.891 215.366 195.128C226.14 196.463 224.082 216.178 208.085 211.362C199.371 208.739 169.71 194.621 162.215 189.586C156.342 185.641 153.934 176.586 162.243 175.017Z" fill="#FED917"/>
<path d="M145.125 82.5562C147.812 85.0052 147.781 88.4819 146.606 91.5892C145.143 95.4546 129.991 119.263 126.985 122.742C120.506 130.238 109.786 124.923 112.476 116.024C113.573 112.393 128.705 88.8168 131.754 85.0392C135.125 80.8628 140.277 78.1373 145.125 82.5562Z" fill="#FED917"/>
<path d="M197.835 116.059C195.571 118.546 173.808 135.677 171.198 136.728C162.7 140.15 155.822 131.526 161.909 124.554C163.973 122.189 186.435 104.388 188.838 103.425C197.348 100.015 204.224 109.04 197.835 116.059Z" fill="#FED917"/>
<path d="M133.67 194.301C134.768 195.311 135.545 197.63 136.702 198.924C143.262 206.252 148.466 210.453 156.286 216.163C163.138 221.166 158.592 230.801 149.459 229.389C143.2 228.422 122.356 206.619 121.637 201.097C120.708 193.957 128.254 189.32 133.67 194.301Z" fill="#FED917"/>
<path d="M55.4243 91.6731C59.2698 91.0233 61.4571 92.0998 63.8982 94.6992C65.8699 96.7986 79.2541 116.762 80.1951 119.114C83.2121 126.658 74.5166 132.321 67.8099 126.205C65.0376 123.677 52.2718 106.376 50.6614 103.052C48.4698 98.5288 49.3516 92.6995 55.4243 91.6731Z" fill="#FED917"/>
<path d="M191.072 278.216C195.78 277.456 211.616 279.114 215.789 281.353C221.784 284.57 222.706 292.187 216.317 295.45C211.056 298.137 209.933 295.697 205.523 295.011C200.671 294.255 192.394 294.238 188.412 292.382C181.123 288.986 183.591 279.423 191.072 278.216Z" fill="#FED917"/>
<path d="M100.311 245.732C109.692 244.918 115.267 257.794 105.768 262.01C92.0133 268.113 88.2063 246.782 100.311 245.732Z" fill="#FED917"/>
<path d="M78.9916 230.142C71.4011 237.031 62.0401 223.002 70.6992 219.045C78.2962 215.575 83.8373 225.745 78.9916 230.142Z" fill="#FED917"/>
<path d="M14.294 92.7668C22.7087 91.9753 23.5743 104.935 15.108 105.165C7.01797 105.384 6.72785 93.4782 14.294 92.7668Z" fill="#FED917"/>
<path d="M98.7029 135.282C129.122 131.291 135.913 173.184 107.971 178.09C77.3074 183.473 70.3958 138.996 98.7029 135.282Z" fill="#FED917"/>
<path d="M41.8603 141.241C49.8449 140.861 50.693 153.477 42.1665 153.667C34.1808 153.846 33.7866 141.626 41.8603 141.241Z" fill="#FED917"/>
</g>
</svg>
