<svg width="80" height="80" viewBox="0 0 80 80" fill="none" xmlns="http://www.w3.org/2000/svg">
<circle cx="40" cy="40" r="40" fill="#248DFA"/>
<path d="M21.7305 38C19.5305 38 17.7305 39.8 17.7305 42V56C17.7305 58.2 19.5305 60 21.7305 60C23.9305 60 25.7305 58.2 25.7305 56V42C25.7305 39.8 23.9305 38 21.7305 38ZM35.7305 26.6C35.7305 22.9 38.6305 20 42.3305 20C44.4105 20 46.4305 20.98 47.7305 22.5C49.0305 20.98 51.0505 20 53.1305 20C56.8305 20 59.7305 22.9 59.7305 26.6C59.7305 30.8 54.7305 35.62 49.0705 40.78C48.7018 41.1173 48.2202 41.3044 47.7205 41.3044C47.2208 41.3044 46.7392 41.1173 46.3705 40.78C40.7305 35.62 35.7305 30.8 35.7305 26.6ZM55.7105 50H42.0505C41.8253 49.9974 41.6021 49.9569 41.3905 49.88L38.4505 48.86C38.3278 48.8174 38.2148 48.7509 38.1181 48.6643C38.0213 48.5777 37.9428 48.4727 37.8869 48.3555C37.8311 48.2383 37.7991 48.1111 37.7929 47.9814C37.7866 47.8517 37.8062 47.7221 37.8505 47.6C38.0305 47.08 38.6105 46.8 39.1305 47L41.3705 47.86C41.5905 47.94 41.8505 48 42.0905 48H47.3505C48.6505 48 49.7105 46.94 49.7105 45.64C49.7105 44.66 49.0905 43.78 48.1705 43.42L34.3305 38.26C33.8905 38.08 33.4105 38 32.9305 38H29.7305V56.04L42.4705 59.66C43.2905 59.9 44.1705 59.86 44.9705 59.56L59.7305 54C59.7305 51.78 57.9305 50 55.7105 50Z" fill="white"/>
</svg>
