<svg width="113" height="27" viewBox="0 0 113 27" fill="none" xmlns="http://www.w3.org/2000/svg">
<g clip-path="url(#clip0_319_2734)">
<path d="M40.1927 9.3363V10.8239H40.2386C40.778 10.0275 41.6736 9.08946 43.6588 9.08946C45.2032 9.08946 46.3879 9.86949 46.8956 11.0478H46.9415C47.3752 10.452 47.8723 10.0011 48.4294 9.68188C49.0888 9.30339 49.8222 9.08617 50.746 9.08617C52.8369 9.08617 54.6881 10.4356 54.6881 13.8387V20.2929H51.5006V14.2896C51.5006 12.565 50.8729 11.5678 49.5683 11.5678C48.6128 11.5678 47.9182 12.1668 47.6537 12.904C47.562 13.1574 47.5197 13.503 47.5197 13.7927V20.2962H44.3322V14.0461C44.3322 12.5815 43.7293 11.5645 42.4423 11.5645C41.4127 11.5645 40.7675 12.3215 40.503 12.9698C40.3902 13.2463 40.3549 13.5656 40.3549 13.8651V20.2929H37.1639V9.3363H40.1927ZM71.1403 9.3363V11.4032H71.2285C71.8138 9.82341 73.203 9.08946 74.423 9.08946C74.7298 9.08946 74.899 9.1125 75.1458 9.15858V12.0285C74.8532 11.9891 74.5817 11.9496 74.2009 11.9496C72.8187 11.9496 71.8561 12.7 71.6128 13.8749C71.5599 14.1185 71.5423 14.3818 71.5423 14.6846V20.2962H68.2702V9.3363H71.1403ZM79.5886 5.70605V9.15528H82.3529V11.9463H79.5886V16.0636C79.5886 17.3966 79.9517 18.0417 81.0307 18.0417C81.5384 18.0417 81.9122 17.9824 82.2366 17.9067L82.2789 20.2205C81.8452 20.3719 80.9214 20.5364 79.9835 20.5364C78.8798 20.5364 77.9596 20.1777 77.3989 19.6215C76.7572 18.9862 76.461 17.9462 76.461 16.4652V5.70605H79.5886ZM34.9425 20.2929H31.7691V5.70605H34.9425V20.2929ZM26.4802 16.3796C26.4802 16.5803 26.4625 16.791 26.4026 16.972C26.1558 17.7323 25.3131 18.3741 24.2623 18.3741C23.3843 18.3741 22.6862 17.91 22.6862 16.9259C22.6862 15.4218 24.4633 15.0038 26.4837 15.0137V16.3796H26.4802ZM29.65 13.7565C29.65 11.2716 28.5147 9.08946 24.6749 9.08946C22.7038 9.08946 21.1383 9.60619 20.285 10.067L20.9091 12.0615C21.6883 11.6007 22.933 11.2222 24.1107 11.2222C26.0606 11.2189 26.3779 12.2524 26.3779 12.9139V13.0719C22.1291 13.0653 19.4458 14.4377 19.4458 17.2353C19.4458 18.9435 20.8104 20.543 23.1869 20.543C24.6502 20.543 25.8702 20 26.6036 19.1278H26.6741C26.6741 19.1278 27.1607 21.0202 29.8334 20.2962C29.6923 19.5063 29.6465 18.667 29.6465 17.6566V13.7565H29.65ZM3.50483 5.70605C3.83275 7.24965 4.76361 11.7323 4.76361 11.7323C5.15499 13.5754 5.51464 15.5074 5.78614 17.0345H5.83551C6.09996 15.412 6.51602 13.8749 6.9603 11.9726L8.52936 5.70605H12.0025L13.4693 12.1339C13.8536 13.921 14.1604 15.3 14.4037 16.9621H14.4495C14.7139 15.2836 15.0595 13.8486 15.4368 12.0121L16.8472 5.70605H20.1792L16.0503 20.2929C13.4199 20.8294 12.4115 19.842 12.0518 18.2753C11.6922 16.7054 10.987 13.7203 10.987 13.7203C10.6238 12.0845 10.3417 10.9326 10.1443 9.25402H10.0949C9.81282 10.9161 9.51664 12.0812 9.07942 13.717L7.34816 20.2962C4.66135 20.7964 3.73049 20.0559 3.2157 18.045C2.77143 16.3236 0 5.70935 0 5.70935H3.50483V5.70605ZM62.9812 16.3796C62.9812 16.5803 62.9635 16.791 62.9036 16.972C62.6568 17.7323 61.8141 18.3741 60.7633 18.3741C59.8854 18.3741 59.1872 17.91 59.1872 16.9259C59.1872 15.4218 60.9643 15.0038 62.9847 15.0137V16.3796H62.9812ZM66.151 13.7565C66.151 11.2716 65.0157 9.08946 61.1759 9.08946C59.2048 9.08946 57.6393 9.60619 56.786 10.067L57.4101 12.0615C58.1894 11.6007 59.434 11.2222 60.6117 11.2222C62.5581 11.2189 62.8789 12.2524 62.8789 12.9139V13.0719C58.6336 13.0653 55.9504 14.4377 55.9504 17.2353C55.9504 18.9435 57.3184 20.543 59.6914 20.543C61.1512 20.543 62.3747 20 63.1046 19.1278H63.1786C63.1786 19.1278 63.6652 21.0202 66.3379 20.2962C66.1969 19.5063 66.151 18.667 66.151 17.6566V13.7565Z" fill="#041E42"/>
<path d="M95.2166 15.2695C95.5294 15.8022 95.5083 16.3968 95.1744 16.6683L89.4033 20.624C88.8023 20.9643 87.9025 20.5518 87.3929 19.6892C86.8798 18.8232 86.9712 17.8574 87.5722 17.5172L93.9618 14.6097C94.3625 14.4585 94.9037 14.7368 95.2166 15.2695ZM102.812 15.2695C103.128 14.7368 103.666 14.4619 104.066 14.6062L110.46 17.5137C111.061 17.854 111.148 18.8197 110.639 19.6858C110.126 20.5484 109.222 20.9574 108.625 20.6206L102.854 16.6649C102.524 16.3968 102.499 15.7988 102.812 15.2695ZM99.0124 17.4141C99.6415 17.4141 100.158 17.7303 100.228 18.1461L100.851 25.0128C100.851 25.6932 100.039 26.25 99.0159 26.25C97.9966 26.25 97.1812 25.6932 97.1812 25.0128L97.7998 18.1461C97.8701 17.7303 98.3868 17.4141 99.0124 17.4141ZM102.854 9.58513L108.625 5.62598C109.222 5.28574 110.126 5.69472 110.639 6.56078C111.148 7.42685 111.061 8.39258 110.46 8.73282L104.066 11.6438C103.666 11.7881 103.125 11.5132 102.812 10.9805C102.499 10.4478 102.524 9.8532 102.854 9.58513ZM93.9618 11.6438L87.5722 8.73282C86.9747 8.39258 86.8833 7.42685 87.3929 6.56078C87.9025 5.69472 88.8058 5.28574 89.4033 5.62598L95.1744 9.58513C95.5083 9.84976 95.5294 10.4478 95.2166 10.9805C94.9037 11.5132 94.3625 11.7881 93.9618 11.6438ZM97.7998 8.10389L97.1812 1.23723C97.1812 0.556756 97.9931 0 99.0159 0C100.039 0 100.851 0.556756 100.851 1.23723L100.228 8.10389C100.158 8.5163 99.6415 8.83592 99.0124 8.83592C98.3868 8.83592 97.8701 8.5163 97.7998 8.10389ZM112.199 20.5965V20.4247H112.358C112.41 20.4247 112.445 20.4591 112.445 20.5106C112.445 20.5587 112.41 20.5965 112.358 20.5965H112.199ZM112.069 20.9093C112.069 20.9265 112.083 20.9436 112.104 20.9436H112.171C112.189 20.9436 112.206 20.9265 112.206 20.9093V20.7134H112.315L112.403 20.9196C112.41 20.9333 112.421 20.9436 112.435 20.9436H112.516C112.54 20.9436 112.558 20.9196 112.547 20.8955C112.516 20.8337 112.484 20.7684 112.452 20.7031C112.505 20.6859 112.586 20.6343 112.586 20.5106C112.586 20.38 112.477 20.3044 112.368 20.3044H112.104C112.087 20.3044 112.069 20.3216 112.069 20.3388V20.9093ZM111.785 20.624C111.785 20.3456 112.017 20.1188 112.301 20.1188C112.586 20.1188 112.818 20.3422 112.818 20.624C112.818 20.9024 112.589 21.1292 112.301 21.1292C112.013 21.1292 111.785 20.9024 111.785 20.624ZM111.662 20.624C111.662 20.9677 111.946 21.2495 112.301 21.2495C112.653 21.2495 112.941 20.9677 112.941 20.624C112.941 20.2803 112.653 19.9985 112.301 19.9985C111.946 19.9985 111.662 20.2803 111.662 20.624Z" fill="#FFC124"/>
</g>
<defs>
<clipPath id="clip0_319_2734">
<rect width="112.941" height="26.25" fill="white"/>
</clipPath>
</defs>
</svg>
